<svg width="24" height="24" viewBox="0 0 24 24" fill="none" xmlns="http://www.w3.org/2000/svg">
<path fill-rule="evenodd" clip-rule="evenodd" d="M21.5311 17.0311C21.4615 17.101 21.3787 17.1564 21.2876 17.1942C21.1965 17.232 21.0988 17.2515 21.0001 17.2515C20.9015 17.2515 20.8038 17.232 20.7127 17.1942C20.6216 17.1564 20.5388 17.101 20.4691 17.0311L12.0001 8.56062L3.53112 17.0311C3.46139 17.1009 3.37861 17.1562 3.2875 17.1939C3.19639 17.2316 3.09874 17.2511 3.00012 17.2511C2.90151 17.2511 2.80386 17.2316 2.71275 17.1939C2.62164 17.1562 2.53886 17.1009 2.46912 17.0311C2.39939 16.9614 2.34408 16.8786 2.30634 16.7875C2.2686 16.6964 2.24918 16.5987 2.24918 16.5001C2.24918 16.4015 2.2686 16.3039 2.30634 16.2127C2.34408 16.1216 2.39939 16.0389 2.46912 15.9691L11.4691 6.96912C11.5388 6.89928 11.6216 6.84386 11.7127 6.80605C11.8038 6.76824 11.9015 6.74878 12.0001 6.74878C12.0988 6.74878 12.1965 6.76824 12.2876 6.80605C12.3787 6.84386 12.4615 6.89928 12.5311 6.96912L21.5311 15.9691C21.601 16.0388 21.6564 16.1216 21.6942 16.2127C21.732 16.3038 21.7515 16.4015 21.7515 16.5001C21.7515 16.5988 21.732 16.6965 21.6942 16.7876C21.6564 16.8787 21.601 16.9615 21.5311 17.0311Z" fill="#F2F2F2"/>
</svg>
