<svg width="39" height="39" viewBox="0 0 39 39" fill="none" xmlns="http://www.w3.org/2000/svg">
<g clip-path="url(#clip0_9744_4421)">
<path d="M37.46 15.2797C37.28 14.4997 36.98 13.7597 36.55 13.0897L37.39 11.8297L35.55 9.98969L34.2901 10.8297C33.6201 10.4097 32.87 10.0997 32.1 9.91969L31.8 8.42969H29.2001L28.9 9.90969C28.12 10.0897 27.38 10.3897 26.71 10.8197L25.4501 9.97969L23.6101 11.8197L24.4501 13.0797C24.0301 13.7497 23.7201 14.4997 23.5401 15.2697L22.05 15.5697V18.1697L23.5301 18.4697C23.7101 19.2497 24.0101 19.9897 24.4401 20.6597L23.6 21.9197L25.4401 23.7597L26.7001 22.9197C27.3701 23.3397 28.12 23.6497 28.89 23.8297L29.1901 25.3197H31.7901L32.09 23.8397C32.87 23.6597 33.61 23.3597 34.28 22.9297L35.5401 23.7697L37.3801 21.9297L36.5401 20.6697C36.9601 19.9997 37.2701 19.2497 37.4501 18.4797L38.94 18.1797V15.5797L37.46 15.2797ZM30.51 20.7697C28.36 20.7697 26.6201 19.0297 26.6201 16.8797C26.6201 14.7297 28.36 12.9897 30.51 12.9897C32.66 12.9897 34.4001 14.7297 34.4001 16.8797C34.4001 19.0297 32.66 20.7697 30.51 20.7697Z" fill="#EA510E"/>
<path d="M19.84 21.9601L20.86 19.9201L19.02 18.0801L16.98 19.1001C15.98 18.4501 14.86 17.9801 13.7 17.7401L12.98 15.5801H10.38L9.66 17.7401C8.49 17.9901 7.38 18.4501 6.38 19.1001L4.34 18.0801L2.5 19.9201L3.52 21.9601C2.87 22.9601 2.4 24.0801 2.16 25.2401L0 25.9601V28.5601L2.16 29.2801C2.41 30.4501 2.87 31.5601 3.52 32.5601L2.5 34.6001L4.34 36.4401L6.38 35.4201C7.38 36.0701 8.5 36.5401 9.66 36.7801L10.38 38.9401H12.98L13.7 36.7801C14.87 36.5301 15.98 36.0701 16.98 35.4201L19.02 36.4401L20.86 34.6001L19.84 32.5601C20.49 31.5601 20.96 30.4401 21.2 29.2801L23.36 28.5601V25.9601L21.2 25.2401C20.95 24.0701 20.49 22.9601 19.84 21.9601ZM11.68 33.1001C8.45 33.1001 5.84 30.4801 5.84 27.2601C5.84 24.0401 8.46 21.4201 11.68 21.4201C14.9 21.4201 17.52 24.0401 17.52 27.2601C17.52 30.4801 14.9 33.1001 11.68 33.1001Z" fill="#EA510E"/>
<path d="M11.6801 4.62012L10.3501 6.49012H11.6801V4.62012Z" fill="#EA510E"/>
<path d="M7.79 15.58V12.98H18.18V0H0V12.98H3.89L7.78 15.58H7.79ZM8.56 6.76L11.81 2.22C12.02 1.93 12.42 1.86 12.72 2.07C12.89 2.19 12.99 2.39 12.99 2.6V6.49H14.29V7.79H12.99V9.74H11.69V7.79H9.09C8.73 7.79 8.44 7.5 8.44 7.14C8.44 7 8.48 6.87 8.56 6.76ZM3.29 9.34C3.19 9.1 3.25 8.82 3.43 8.63L6.79 5.27C7.01 5.05 7.14 4.75 7.14 4.43C7.19 3.82 6.73 3.29 6.12 3.25C6.1 3.25 6.08 3.25 6.06 3.25H5.84C5.16 3.25 4.6 3.76 4.54 4.44V5.2H3.24V4.44C3.29 3.05 4.44 1.94 5.84 1.96H6.06C7.37 1.96 8.44 3.03 8.44 4.34C8.44 4.38 8.44 4.41 8.44 4.45C8.44 5.11 8.18 5.74 7.71 6.21L5.46 8.46H8.44V9.76H3.89C3.63 9.76 3.39 9.6 3.29 9.36V9.34Z" fill="#EA510E"/>
</g>
<defs>
<clipPath id="clip0_9744_4421">
<rect width="38.94" height="38.94" fill="white"/>
</clipPath>
</defs>
</svg>
