<svg width="39" height="39" viewBox="0 0 39 39" fill="none" xmlns="http://www.w3.org/2000/svg">
<g clip-path="url(#clip0_9744_4408)">
<path d="M28.03 29.3896C27.68 29.3396 27.3199 29.3096 26.9699 29.3096C26.6199 29.3096 26.26 29.3396 25.91 29.3896C25.69 29.4196 25.4599 29.4396 25.2299 29.4396C24.9399 29.4396 24.6599 29.4096 24.3899 29.3596C24.2299 30.9396 23.94 32.5896 23.45 34.0996C23.6 34.0796 23.7299 34.0496 23.8799 34.0296C24.3199 33.9396 24.83 33.8496 25.78 33.8496C26.73 33.8496 27.24 33.9496 27.68 34.0296C28.03 34.0996 28.31 34.1496 28.93 34.1496C29.55 34.1496 29.83 34.0996 30.18 34.0296C30.27 34.0096 30.36 33.9996 30.45 33.9796C29.99 32.5096 29.7099 30.8996 29.5499 29.3596C29.2699 29.4096 28.99 29.4396 28.7 29.4396C28.47 29.4396 28.25 29.4196 28.02 29.3896H28.03Z" fill="#EA510E"/>
<path d="M36.69 35.1496C36.31 35.2196 35.96 35.2896 35.22 35.2896C34.48 35.2896 34.13 35.2196 33.75 35.1496C33.34 35.0696 32.91 34.9896 32.07 34.9896C31.23 34.9896 30.8 35.0696 30.39 35.1496C30.01 35.2196 29.66 35.2896 28.92 35.2896C28.18 35.2896 27.83 35.2196 27.45 35.1496C27.04 35.0696 26.61 34.9896 25.77 34.9896C24.93 34.9896 24.5 35.0696 24.09 35.1496C23.71 35.2196 23.36 35.2896 22.62 35.2896C21.88 35.2896 21.53 35.2196 21.15 35.1496C20.74 35.0696 20.31 34.9896 19.47 34.9896C18.63 34.9896 18.2 35.0696 17.79 35.1496C17.41 35.2196 17.06 35.2896 16.32 35.2896C15.58 35.2896 15.23 35.2196 14.85 35.1496C14.44 35.0696 14.01 34.9896 13.17 34.9896C12.33 34.9896 11.9 35.0696 11.49 35.1496C11.11 35.2196 10.76 35.2896 10.02 35.2896C9.28 35.2896 8.93 35.2196 8.55 35.1496C8.14 35.0696 7.71 34.9896 6.87 34.9896C6.03 34.9896 5.6 35.0696 5.19 35.1496C4.81 35.2196 4.46 35.2896 3.72 35.2896C2.98 35.2896 2.63 35.2196 2.25 35.1496C1.75 35.0496 1.23 34.9496 0 34.9996V38.9396H38.94V34.9996C37.7 34.9596 37.18 35.0596 36.69 35.1496Z" fill="#EA510E"/>
<path d="M23.59 17.7597C23.8 18.3497 23.92 18.9797 23.92 19.6097C23.92 22.3497 21.86 24.6097 19.22 24.9297C19.69 26.3797 21.04 27.4397 22.64 27.4397C22.74 27.4397 22.84 27.4397 22.95 27.4297C23.57 27.9997 24.38 28.3197 25.23 28.3197C25.4 28.3197 25.57 28.3097 25.74 28.2797C26.56 28.1597 27.39 28.1597 28.2 28.2797C28.37 28.3097 28.54 28.3197 28.71 28.3197C29.55 28.3197 30.37 27.9997 30.99 27.4297C31.09 27.4297 31.2 27.4397 31.3 27.4397C33.28 27.4397 34.9 25.8197 34.9 23.8297C34.9 23.2797 34.78 22.7397 34.54 22.2497C34.95 21.5697 35.16 20.7897 35.16 19.9897C35.16 18.6697 34.58 17.4297 33.58 16.5997C33.63 16.4597 33.67 16.3297 33.7 16.1897C33.25 16.2897 32.78 16.3497 32.31 16.3497C28.85 16.3497 26.03 13.5297 26.03 10.0697V9.97969C26.03 9.10969 26.2 8.27969 26.53 7.50969C26.54 7.47969 26.55 7.45969 26.56 7.42969C24.78 7.63969 23.39 9.16969 23.39 11.0197C23.39 11.1397 23.32 11.2397 23.23 11.2597C23.17 11.2697 23.11 11.2897 23.06 11.3097C23.83 12.3697 24.25 13.6597 24.25 15.0097C24.25 15.9697 24.03 16.9197 23.61 17.7797L23.59 17.7597ZM25.23 21.8497C25.19 21.5397 25.42 21.2597 25.73 21.2197C26.04 21.1797 26.33 21.4097 26.36 21.7197C26.36 21.7697 26.43 22.4097 26.15 23.1697C26.27 23.2997 26.51 23.4897 27.01 23.5497C27.32 23.5897 27.55 23.8697 27.51 24.1897C27.48 24.4797 27.23 24.6897 26.94 24.6897C26.92 24.6897 26.89 24.6897 26.87 24.6897C26.29 24.6197 25.86 24.4197 25.56 24.1797C25.33 24.4497 25.04 24.7097 24.66 24.9397C24.57 24.9897 24.47 25.0197 24.37 25.0197C24.18 25.0197 23.99 24.9197 23.88 24.7397C23.72 24.4697 23.81 24.1197 24.08 23.9597C25.35 23.1997 25.24 21.9097 25.23 21.8597V21.8497Z" fill="#EA510E"/>
<path d="M11.27 34.0305C11.71 33.9405 12.22 33.8505 13.17 33.8505C14.12 33.8505 14.63 33.9505 15.07 34.0305C15.42 34.1005 15.7 34.1505 16.32 34.1505C16.94 34.1505 17.22 34.1005 17.57 34.0305C17.69 34.0105 17.81 33.9805 17.94 33.9605C17.2 32.1205 16.75 30.0305 16.48 27.9805C15.26 29.0005 13.69 29.6205 11.97 29.6205C11.31 29.6205 10.68 29.5305 10.07 29.3605C9.79004 30.9805 9.38004 32.5905 8.79004 34.0405C9.13004 34.1005 9.40004 34.1505 10.01 34.1505C10.62 34.1505 10.91 34.1005 11.26 34.0305H11.27Z" fill="#EA510E"/>
<path d="M3.99995 19.6C3.99995 20.61 4.35995 21.54 4.94995 22.27C4.96995 21.37 5.15995 20.51 5.50995 19.71C5.79995 19.04 5.73995 18.17 5.68995 17.89C5.56995 17.26 5.80995 16.62 6.30995 16.23C6.60995 15.99 6.98995 15.86 7.36995 15.86C7.61995 15.86 7.85995 15.91 8.07995 16.02C8.09995 16.02 8.11995 16.04 8.13995 16.05C8.67995 12.98 11.2 11.5 12.54 11.14C12.69 11.1 12.84 11.08 12.99 11.08C13.7 11.08 14.32 11.51 14.58 12.16C14.9 12.97 14.56 13.89 13.79 14.3C13.76 14.32 13.75 14.33 13.75 14.33C13.75 14.33 13.75 14.35 13.74 14.38C13.69 14.73 13.98 15.45 14.74 16.22C14.78 16.26 14.83 16.31 14.87 16.36C14.92 16.34 14.96 16.32 15.01 16.3C15.21 16.22 15.43 16.18 15.65 16.18C16.25 16.18 16.81 16.5 17.11 17.01L18 18.48C18.66 19.58 19.01 20.83 19.01 22.12V22.6C19.01 23.02 18.97 23.43 18.9 23.83C21.06 23.66 22.77 21.84 22.77 19.62C22.77 18.96 22.61 18.3 22.32 17.71C22.82 16.9 23.08 15.97 23.08 15C23.08 13.42 22.3699 11.95 21.16 10.96C21.3699 10.42 21.4699 9.85 21.4699 9.25C21.4699 7.05 19.98 5.15 17.86 4.63C17.69 4.59 17.58 4.43 17.58 4.24V4.22C17.58 1.9 15.7 0 13.39 0C11.08 0 9.19995 1.9 9.19995 4.22C9.19995 4.42 9.07995 4.58 8.91995 4.62C6.78995 5.14 5.30995 7.04 5.30995 9.24C5.30995 9.83 5.41995 10.4 5.61995 10.95C4.40995 11.93 3.69995 13.41 3.69995 14.99C3.69995 15.96 3.95995 16.88 4.45995 17.7C4.15995 18.29 4.00995 18.94 4.00995 19.61L3.99995 19.6ZM14.5 8.05C15.19 7.97 15.51 7.68 15.65 7.5C15.3 6.59 15.38 5.81 15.39 5.76C15.43 5.45 15.71 5.22 16.02 5.26C16.33 5.3 16.56 5.58 16.52 5.89C16.52 5.96 16.37 7.57 17.96 8.52C18.23 8.68 18.32 9.03 18.16 9.3C18.05 9.48 17.86 9.58 17.67 9.58C17.57 9.58 17.47 9.55 17.38 9.5C16.9 9.21 16.53 8.88 16.25 8.53C15.9 8.83 15.38 9.1 14.65 9.19C14.63 9.19 14.6 9.19 14.58 9.19C14.3 9.19 14.05 8.98 14.01 8.69C13.97 8.38 14.19 8.09 14.51 8.05H14.5Z" fill="#EA510E"/>
<path d="M6.09008 22.4702V22.5802C6.09008 25.8302 8.73008 28.4702 11.9801 28.4702C15.2301 28.4702 17.8701 25.8302 17.8701 22.5802V22.1002C17.8701 21.0302 17.5801 19.9702 17.0201 19.0502L16.1301 17.5802C15.9901 17.3402 15.6901 17.2402 15.4301 17.3502C15.1701 17.4502 15.0301 17.7302 15.0901 18.0102C15.1301 18.1902 15.1801 18.4802 15.1901 18.8202C14.9301 18.2502 14.5301 17.6402 13.9201 17.0202C12.9701 16.0602 12.4801 15.0102 12.6001 14.2002C12.6601 13.7902 12.8801 13.4802 13.2501 13.2902C13.5101 13.1502 13.6201 12.8502 13.5101 12.5802C13.4001 12.3102 13.1101 12.1602 12.8301 12.2402C11.6801 12.5502 9.44008 13.8902 9.20008 16.7302C9.14008 17.4302 9.05008 18.0002 8.94008 18.4602C8.71008 17.8902 8.29008 17.3802 7.60008 17.0602C7.41008 16.9702 7.18008 17.0002 7.01008 17.1302C6.84008 17.2602 6.76008 17.4802 6.80008 17.6902C6.80008 17.7002 7.05008 19.0202 6.55008 20.1702C6.24008 20.8802 6.08008 21.6602 6.08008 22.4802L6.09008 22.4702ZM14.7201 24.7202C16.0201 23.2002 15.3701 21.7202 15.3601 21.7002C15.2301 21.4102 15.3601 21.0702 15.6401 20.9402C15.9301 20.8102 16.2701 20.9402 16.4001 21.2202C16.4401 21.3102 17.3601 23.3902 15.5901 25.4502C15.4801 25.5802 15.3201 25.6502 15.1601 25.6502C15.0301 25.6502 14.9001 25.6102 14.7901 25.5102C14.5501 25.3002 14.5201 24.9402 14.7301 24.7102L14.7201 24.7202Z" fill="#EA510E"/>
<path d="M32.2899 15.1801C35.1199 15.1801 37.4199 12.8801 37.4199 10.0501V9.64012C37.4199 8.71012 37.1599 7.79012 36.6799 6.99012L35.9199 5.73012C35.7799 5.49012 35.4799 5.39012 35.2199 5.50012C34.9599 5.60012 34.8199 5.88012 34.8799 6.16012C34.8999 6.23012 34.9099 6.32012 34.9299 6.43012C34.7099 6.05012 34.4199 5.64012 34.0199 5.24012C33.2199 4.44012 32.8099 3.56012 32.9099 2.89012C32.9599 2.56012 33.1299 2.32012 33.4199 2.17012C33.6799 2.03012 33.7899 1.73012 33.6799 1.46012C33.5699 1.19012 33.2799 1.04012 32.9999 1.12012C32.8799 1.15012 30.0899 1.94012 29.8299 5.04012C29.7899 5.52012 29.7299 5.93012 29.6599 6.27012C29.4399 5.86012 29.0999 5.49012 28.5699 5.25012C28.3799 5.16012 28.1499 5.19012 27.9799 5.32012C27.8099 5.45012 27.7299 5.67012 27.7699 5.88012C27.7699 5.89012 27.9799 7.00012 27.5599 7.96012C27.2899 8.58012 27.1499 9.26012 27.1499 9.97012V10.0601C27.1499 12.8901 29.4499 15.1901 32.2799 15.1901L32.2899 15.1801ZM33.3499 12.3801C33.9499 12.2601 34.3699 12.0101 34.5799 11.6501C34.9199 11.0701 34.6999 10.3201 34.6999 10.3201C34.5999 10.0201 34.7699 9.70012 35.0699 9.60012C35.3699 9.50012 35.6899 9.67012 35.7899 9.97012C35.8099 10.0201 36.1699 11.2001 35.5699 12.2301C35.1799 12.8901 34.5099 13.3101 33.5799 13.5001C33.5399 13.5001 33.4999 13.5101 33.4699 13.5101C33.1999 13.5101 32.9699 13.3201 32.9099 13.0501C32.8499 12.7401 33.0499 12.4401 33.3599 12.3801H33.3499Z" fill="#EA510E"/>
</g>
<defs>
<clipPath id="clip0_9744_4408">
<rect width="38.94" height="38.94" fill="white"/>
</clipPath>
</defs>
</svg>
