<svg width="39" height="39" viewBox="0 0 39 39" fill="none" xmlns="http://www.w3.org/2000/svg">
<g clip-path="url(#clip0_9744_4428)">
<path d="M4.10991 23.91C3.78991 23.36 3.09991 23.18 2.54991 23.49L0.569909 24.63C0.0199089 24.95 -0.160091 25.64 0.149909 26.19L7.17991 38.37C7.49991 38.92 8.18991 39.1 8.73991 38.79L10.7199 37.65C11.2699 37.33 11.4499 36.64 11.1399 36.09L4.10991 23.91Z" fill="#EA510E"/>
<path d="M38.55 22.5306C37.74 21.1206 35.94 20.6406 34.53 21.4506L29.6 24.2906C29.58 24.6206 29.52 24.9506 29.44 25.2806C28.84 27.5206 26.8 29.0906 24.48 29.0906C24.03 29.0906 23.58 29.0306 23.15 28.9106L18.33 27.6206C17.72 27.4606 17.36 26.8306 17.52 26.2206C17.68 25.6106 18.31 25.2506 18.92 25.4106L23.74 26.7006C25.26 27.1106 26.83 26.2006 27.23 24.6806C27.64 23.1606 26.73 21.5906 25.21 21.1906L18.15 19.3006C16.29 18.8006 14.34 19.0606 12.67 20.0206L6.53003 23.5606L12.42 33.7606L13.75 32.9906L20.78 34.7806C23.01 35.3506 25.34 35.0206 27.31 33.8806C27.58 33.7306 27.84 33.5606 28.09 33.3706L37.72 26.3606C38.94 25.4706 39.29 23.8106 38.54 22.5106L38.55 22.5306Z" fill="#EA510E"/>
<path d="M26.7099 17.09C26.3699 17.64 26.3499 18.31 26.6599 18.87C26.9699 19.44 27.5499 19.78 28.1999 19.78C28.8499 19.78 29.4199 19.44 29.7399 18.87C30.0499 18.3 30.0399 17.64 29.6899 17.09L28.1999 14.71L26.7099 17.09Z" fill="#EA510E"/>
<path d="M24.21 18.6604C24.05 17.7104 24.24 16.7404 24.78 15.8804L27.24 11.9504C27.45 11.6204 27.81 11.4104 28.21 11.4104C28.61 11.4104 28.97 11.6104 29.18 11.9504L31.64 15.8804C32.17 16.7304 32.36 17.7104 32.21 18.6604C34.43 17.3104 35.92 14.8604 35.92 12.0804C35.92 8.09039 33.24 4.60039 33.13 4.45039C32.86 4.10039 32.4 3.94039 31.97 4.04039C31.54 4.14039 31.2 4.49039 31.11 4.93039C31.01 5.44039 30.76 6.26039 30.38 6.99039C29.44 2.32039 25.63 0.380387 25.06 0.120387C25.03 0.110387 25.01 0.090387 24.98 0.080387C24.4 -0.149613 23.74 0.130387 23.5 0.710387C23.34 1.10039 23.41 1.53039 23.65 1.84039C23.87 2.50039 24.08 4.98039 22.55 7.02039C21.17 8.86039 20.5 10.5104 20.5 12.0804C20.5 14.8704 21.99 17.3104 24.21 18.6604Z" fill="#EA510E"/>
</g>
<defs>
<clipPath id="clip0_9744_4428">
<rect width="38.94" height="38.94" fill="white"/>
</clipPath>
</defs>
</svg>
