<svg width="39" height="39" viewBox="0 0 39 39" fill="none" xmlns="http://www.w3.org/2000/svg">
<g clip-path="url(#clip0_9744_4418)">
<path d="M35.31 32.51C35.31 33.88 34.2 34.99 32.83 34.99C31.46 34.99 30.35 33.88 30.35 32.51C30.35 31.14 31.46 30.03 32.83 30.03C34.2 30.03 35.31 31.14 35.31 32.51ZM6.22 30.03C4.85 30.03 3.74 31.14 3.74 32.51C3.74 33.88 4.85 34.99 6.22 34.99C7.59 34.99 8.7 33.88 8.7 32.51C8.7 31.14 7.59 30.03 6.22 30.03ZM32.83 8.89C34.2 8.89 35.31 7.78 35.31 6.41C35.31 5.04 34.2 3.93 32.83 3.93C31.46 3.93 30.35 5.04 30.35 6.41C30.35 7.78 31.46 8.89 32.83 8.89ZM6.22 8.89C7.59 8.89 8.7 7.78 8.7 6.41C8.7 5.04 7.59 3.93 6.22 3.93C4.85 3.93 3.74 5.04 3.74 6.41C3.74 7.78 4.85 8.89 6.22 8.89ZM7.78 19.94V18.97C6.79 18.33 6.06 17.3 5.86 16.05L5.67 14.92C5.45 13.61 5.82 12.27 6.68 11.26C7.54 10.24 8.8 9.66 10.13 9.66C11.46 9.66 12.72 10.24 13.58 11.26C14.44 12.28 14.81 13.61 14.59 14.92L14.4 16.05C14.19 17.29 13.47 18.32 12.48 18.96V19.93H13.76C14.87 19.93 15.82 20.63 16.21 21.62H17.14V20.65C16.15 20.01 15.42 18.98 15.22 17.74L15.03 16.61C14.81 15.3 15.18 13.96 16.04 12.95C16.9 11.94 18.16 11.35 19.49 11.35C20.82 11.35 22.08 11.93 22.94 12.95C23.8 13.97 24.17 15.3 23.95 16.61L23.76 17.74C23.55 18.98 22.83 20.01 21.84 20.65V21.62H22.76C23.15 20.63 24.1 19.93 25.22 19.93H26.5V18.96C25.51 18.32 24.79 17.29 24.58 16.05L24.39 14.92C24.17 13.61 24.54 12.27 25.4 11.26C26.26 10.25 27.52 9.66 28.85 9.66C30.18 9.66 31.44 10.24 32.3 11.26C33.16 12.28 33.53 13.61 33.31 14.92L33.12 16.05C32.91 17.29 32.19 18.32 31.2 18.97V19.94H32.48C33.86 19.94 35.02 21.03 35.11 22.41L35.33 25.62C35.38 26.32 34.95 26.96 34.29 27.18C32.77 27.68 30.83 27.95 28.84 27.95C27.83 27.95 26.87 27.86 25.94 27.73C25.83 28.26 25.47 28.7 24.95 28.87C23.42 29.37 21.49 29.64 19.5 29.64C17.51 29.64 15.58 29.37 14.05 28.87C13.53 28.7 13.17 28.26 13.06 27.73C12.13 27.86 11.16 27.95 10.16 27.95C8.17 27.95 6.23 27.68 4.71 27.18C4.06 26.96 3.62 26.33 3.67 25.62L3.89 22.41C3.98 21.03 5.14 19.94 6.52 19.94H7.8H7.78ZM26.19 15.78C26.41 17.07 27.51 18.01 28.82 18.01C30.13 18.01 31.24 17.07 31.45 15.78L31.64 14.65C31.78 13.82 31.55 12.98 31 12.33C30.46 11.69 29.66 11.32 28.82 11.32C27.98 11.32 27.18 11.69 26.64 12.33C26.1 12.97 25.86 13.82 26 14.65L26.19 15.78ZM24.42 21.99C25.16 22.42 25.67 23.19 25.73 24.09L25.87 26.05C28.41 26.44 31.51 26.31 33.64 25.64L33.43 22.52C33.4 22.01 32.96 21.6 32.44 21.6H30.95C30.15 21.6 29.5 20.95 29.5 20.15V19.61C29.28 19.65 29.05 19.67 28.81 19.67C28.57 19.67 28.35 19.64 28.12 19.61V20.15C28.12 20.95 27.47 21.6 26.67 21.6H25.19C24.87 21.6 24.6 21.76 24.42 22V21.99ZM16.84 17.47C17.06 18.76 18.16 19.7 19.47 19.7C20.78 19.7 21.89 18.76 22.1 17.47L22.29 16.34C22.43 15.51 22.2 14.66 21.65 14.02C21.11 13.38 20.31 13.01 19.47 13.01C18.63 13.01 17.83 13.38 17.29 14.02C16.75 14.66 16.51 15.51 16.65 16.34L16.84 17.47ZM15.85 23.28C15.33 23.28 14.9 23.69 14.86 24.2L14.65 27.32C17.34 28.17 21.6 28.17 24.29 27.32L24.08 24.2C24.04 23.69 23.61 23.28 23.09 23.28H21.61C20.81 23.28 20.16 22.63 20.16 21.83V21.29C19.93 21.33 19.71 21.35 19.47 21.35C19.23 21.35 19.01 21.32 18.78 21.29V21.83C18.78 22.63 18.13 23.28 17.33 23.28H15.85ZM7.49 15.78C7.71 17.07 8.81 18.01 10.12 18.01C11.43 18.01 12.54 17.07 12.75 15.78L12.94 14.65C13.08 13.82 12.85 12.98 12.3 12.33C11.76 11.69 10.96 11.32 10.12 11.32C9.28 11.32 8.48 11.69 7.94 12.33C7.4 12.97 7.16 13.82 7.3 14.65L7.49 15.78ZM9.44 19.61V20.15C9.44 20.95 8.79 21.6 7.99 21.6H6.5C5.99 21.6 5.55 22.01 5.51 22.52L5.29 25.64C7.43 26.31 10.53 26.45 13.07 26.05L13.21 24.09C13.27 23.19 13.79 22.42 14.52 21.99C14.34 21.75 14.07 21.59 13.75 21.59H12.27C11.47 21.59 10.82 20.94 10.82 20.14V19.6C10.59 19.64 10.36 19.66 10.13 19.66C9.9 19.66 9.67 19.63 9.44 19.6V19.61ZM35.94 9.11C35.57 9.54 35.12 9.89 34.61 10.13C36.29 12.85 37.28 16.04 37.28 19.47C37.28 22.9 36.29 26.08 34.61 28.8C35.12 29.05 35.57 29.4 35.94 29.83C37.83 26.83 38.93 23.28 38.93 19.47C38.93 15.66 37.83 12.11 35.93 9.1L35.94 9.11ZM9.87 4.49C12.65 2.7 15.94 1.66 19.48 1.66C23.02 1.66 26.37 2.73 29.17 4.54C29.43 4.04 29.79 3.59 30.22 3.24C27.14 1.2 23.45 0 19.49 0C15.53 0 11.88 1.18 8.82 3.2C9.26 3.55 9.62 3.99 9.89 4.49H9.87ZM1.66 19.47C1.66 16.02 2.66 12.81 4.36 10.09C3.85 9.83 3.41 9.47 3.05 9.04C1.12 12.06 0 15.64 0 19.48C0 23.32 1.12 26.89 3.04 29.91C3.4 29.47 3.84 29.11 4.35 28.85C2.65 26.12 1.66 22.92 1.66 19.48V19.47ZM19.47 37.29C15.93 37.29 12.63 36.24 9.86 34.45C9.59 34.95 9.23 35.39 8.79 35.74C11.86 37.76 15.53 38.95 19.48 38.95C23.43 38.95 27.14 37.75 30.23 35.71C29.79 35.35 29.44 34.91 29.18 34.41C26.39 36.23 23.06 37.3 19.49 37.3L19.47 37.29Z" fill="#EA510E"/>
</g>
<defs>
<clipPath id="clip0_9744_4418">
<rect width="38.94" height="38.94" fill="white"/>
</clipPath>
</defs>
</svg>
