<svg width="39" height="39" viewBox="0 0 39 39" fill="none" xmlns="http://www.w3.org/2000/svg">
<g clip-path="url(#clip0_9744_4435)">
<path d="M29.8701 19.4905C29.8701 25.5805 23.2701 28.6005 20.7701 29.5205V25.2205L24.2901 21.7105C24.8001 21.2005 24.8001 20.3705 24.2901 19.8605C23.7801 19.3505 22.9501 19.3505 22.4401 19.8605L20.7601 21.5505V17.4205L22.9801 15.2105C23.4901 14.7005 23.4901 13.8705 22.9801 13.3605C22.4701 12.8505 21.6401 12.8505 21.1301 13.3605L19.4501 15.0505L17.7701 13.3605C17.2601 12.8505 16.4301 12.8505 15.9201 13.3605C15.4101 13.8705 15.4101 14.7005 15.9201 15.2105L18.1401 17.4205V21.5505L16.4601 19.8605C15.9501 19.3505 15.1201 19.3505 14.6101 19.8605C14.1001 20.3705 14.1001 21.2005 14.6101 21.7105L18.1301 25.2205V29.5205C15.6401 28.6005 9.03011 25.5805 9.03011 19.4905C9.03011 12.4505 18.2701 5.73047 18.6701 5.44047C19.1201 5.12047 19.7201 5.12047 20.1801 5.44047C20.5801 5.73047 29.8201 12.4405 29.8201 19.4905H29.8701ZM19.8401 29.8405C19.7201 29.8805 19.5901 29.8905 19.4801 29.8905C19.3701 29.8905 19.2301 29.8805 19.1201 29.8405C19.0401 29.8305 18.7001 29.7205 18.1801 29.5305V32.4905C18.1801 33.2005 18.7601 33.7905 19.4801 33.7905C20.2001 33.7905 20.7801 33.2105 20.7801 32.4905V29.5305C20.2601 29.7205 19.9201 29.8305 19.8401 29.8405ZM36.6201 10.2205C36.2801 9.59048 35.4901 9.35047 34.8601 9.70047C34.2301 10.0405 33.9901 10.8305 34.3401 11.4605C37.8701 17.9805 36.6701 26.1905 31.4201 31.4405C26.0801 36.7805 18.0301 37.7905 11.6601 34.4705L12.8501 33.2805C13.2201 32.9105 13.3301 32.3505 13.1301 31.8605C12.9301 31.3705 12.4501 31.0605 11.9301 31.0605H6.60011C5.88011 31.0605 5.30011 31.6405 5.30011 32.3605V37.6905C5.30011 38.2205 5.62011 38.6905 6.10011 38.8905C6.26011 38.9605 6.43011 38.9905 6.60011 38.9905C6.94011 38.9905 7.27011 38.8605 7.52011 38.6105L9.75011 36.3805C12.6801 38.0705 16.0001 38.9905 19.4701 38.9905C24.6801 38.9905 29.5701 36.9605 33.2501 33.2805C39.3001 27.2305 40.6901 17.7505 36.6201 10.2205ZM7.53011 7.55048C10.7201 4.36048 14.9601 2.60047 19.4701 2.60047C22.2401 2.60047 24.9001 3.27048 27.2801 4.51048L26.0801 5.71047C25.7101 6.08047 25.6001 6.64048 25.8001 7.13048C26.0001 7.62047 26.4801 7.93047 27.0001 7.93047H32.3301C33.0501 7.93047 33.6301 7.35048 33.6301 6.63048V1.30047C33.6301 0.770475 33.3101 0.300475 32.8301 0.100475C32.3401 -0.0995252 31.7901 0.0104748 31.4101 0.380475L29.1701 2.62047C21.7301 -1.66953 12.0501 -0.649525 5.69011 5.71047C-0.369886 11.7605 -1.74989 21.2405 2.32011 28.7605C2.56011 29.1905 3.00011 29.4405 3.46011 29.4405C3.67011 29.4405 3.88011 29.3905 4.08011 29.2805C4.71011 28.9405 4.95011 28.1505 4.60011 27.5205C1.07011 21.0005 2.27011 12.7905 7.52011 7.54047L7.53011 7.55048Z" fill="#EA510E"/>
</g>
<defs>
<clipPath id="clip0_9744_4435">
<rect width="38.94" height="38.98" fill="white"/>
</clipPath>
</defs>
</svg>
