<svg width="68" height="57" viewBox="0 0 68 57" fill="none" xmlns="http://www.w3.org/2000/svg">
<path d="M41.1142 0H39.7935V1.32077H41.1142V0Z" fill="#CA2D17"/>
<path d="M41.0069 0.104736H39.8984V1.21324H41.0069V0.104736Z" fill="#CA2D17"/>
<path d="M39.4712 0H38.1504V1.32077H39.4712V0Z" fill="#CA2D17"/>
<path d="M39.3636 0.104736H38.2551V1.21324H39.3636V0.104736Z" fill="#CA2D17"/>
<path d="M41.1142 1.64307H39.7935V2.96384H41.1142V1.64307Z" fill="#CA2D17"/>
<path d="M41.0069 1.74805H39.8984V2.85655H41.0069V1.74805Z" fill="#CA2D17"/>
<path d="M39.4712 1.64307H38.1504V2.96384H39.4712V1.64307Z" fill="#CA2D17"/>
<path d="M39.3636 1.74805H38.2551V2.85655H39.3636V1.74805Z" fill="#CA2D17"/>
<path d="M37.8281 1.64307H36.5073V2.96384H37.8281V1.64307Z" fill="#CA2D17"/>
<path d="M37.7206 1.74805H36.6121V2.85655H37.7206V1.74805Z" fill="#CA2D17"/>
<path d="M36.1848 1.64307H34.864V2.96384H36.1848V1.64307Z" fill="#CA2D17"/>
<path d="M36.0775 1.74805H34.969V2.85655H36.0775V1.74805Z" fill="#CA2D17"/>
<path d="M39.4712 3.28613H38.1504V4.6069H39.4712V3.28613Z" fill="#CA2D17"/>
<path d="M39.3636 3.39111H38.2551V4.49962H39.3636V3.39111Z" fill="#CA2D17"/>
<path d="M37.8281 3.28613H36.5073V4.6069H37.8281V3.28613Z" fill="#CA2D17"/>
<path d="M37.7206 3.39111H36.6121V4.49962H37.7206V3.39111Z" fill="#CA2D17"/>
<path d="M36.1848 3.28613H34.864V4.6069H36.1848V3.28613Z" fill="#CA2D17"/>
<path d="M36.0775 3.39111H34.969V4.49962H36.0775V3.39111Z" fill="#CA2D17"/>
<path d="M34.5417 3.28613H33.2209V4.6069H34.5417V3.28613Z" fill="#CA2D17"/>
<path d="M34.4344 3.39111H33.3259V4.49962H34.4344V3.39111Z" fill="#CA2D17"/>
<path d="M32.8987 3.28613H31.5779V4.6069H32.8987V3.28613Z" fill="#CA2D17"/>
<path d="M32.7914 3.39111H31.6829V4.49962H32.7914V3.39111Z" fill="#CA2D17"/>
<path d="M39.4712 4.9292H38.1504V6.24997H39.4712V4.9292Z" fill="#CA2D17"/>
<path d="M39.3636 5.03418H38.2551V6.14268H39.3636V5.03418Z" fill="#CA2D17"/>
<path d="M37.8281 4.9292H36.5073V6.24997H37.8281V4.9292Z" fill="#CA2D17"/>
<path d="M37.7206 5.03418H36.6121V6.14268H37.7206V5.03418Z" fill="#CA2D17"/>
<path d="M36.1848 4.9292H34.864V6.24997H36.1848V4.9292Z" fill="#CA2D17"/>
<path d="M36.0775 5.03418H34.969V6.14268H36.0775V5.03418Z" fill="#CA2D17"/>
<path d="M34.5417 4.9292H33.2209V6.24997H34.5417V4.9292Z" fill="#CA2D17"/>
<path d="M34.4344 5.03418H33.3259V6.14268H34.4344V5.03418Z" fill="#CA2D17"/>
<path d="M32.8987 4.9292H31.5779V6.24997H32.8987V4.9292Z" fill="#CA2D17"/>
<path d="M32.7914 5.03418H31.6829V6.14268H32.7914V5.03418Z" fill="#CA2D17"/>
<path d="M31.2556 4.9292H29.9348V6.24997H31.2556V4.9292Z" fill="#CA2D17"/>
<path d="M31.1483 5.03418H30.0398V6.14268H31.1483V5.03418Z" fill="#CA2D17"/>
<path d="M39.4712 6.57227H38.1504V7.89304H39.4712V6.57227Z" fill="#E15012"/>
<path d="M39.3636 6.67725H38.2551V7.78575H39.3636V6.67725Z" fill="#E15012"/>
<path d="M37.8281 6.57227H36.5073V7.89304H37.8281V6.57227Z" fill="#E15012"/>
<path d="M37.7206 6.67725H36.6121V7.78575H37.7206V6.67725Z" fill="#E15012"/>
<path d="M36.1848 6.57227H34.864V7.89304H36.1848V6.57227Z" fill="#ED7402"/>
<path d="M36.0775 6.67725H34.969V7.78575H36.0775V6.67725Z" fill="#ED7402"/>
<path d="M34.5417 6.57227H33.2209V7.89304H34.5417V6.57227Z" fill="#ED7402"/>
<path d="M34.4344 6.67725H33.3259V7.78575H34.4344V6.67725Z" fill="#ED7402"/>
<path d="M32.8987 6.57227H31.5779V7.89304H32.8987V6.57227Z" fill="#CA2D17"/>
<path d="M32.7914 6.67725H31.6829V7.78575H32.7914V6.67725Z" fill="#CA2D17"/>
<path d="M31.2556 6.57227H29.9348V7.89304H31.2556V6.57227Z" fill="#CA2D17"/>
<path d="M31.1483 6.67725H30.0398V7.78575H31.1483V6.67725Z" fill="#CA2D17"/>
<path d="M41.1142 8.21558H39.7935V9.53635H41.1142V8.21558Z" fill="#E15012"/>
<path d="M41.0069 8.32031H39.8984V9.42882H41.0069V8.32031Z" fill="#E15012"/>
<path d="M39.4712 8.21558H38.1504V9.53635H39.4712V8.21558Z" fill="#E15012"/>
<path d="M39.3636 8.32031H38.2551V9.42882H39.3636V8.32031Z" fill="#E15012"/>
<path d="M37.8281 8.21558H36.5073V9.53635H37.8281V8.21558Z" fill="#E15012"/>
<path d="M37.7206 8.32031H36.6121V9.42882H37.7206V8.32031Z" fill="#E15012"/>
<path d="M36.1848 8.21558H34.864V9.53635H36.1848V8.21558Z" fill="#ED7402"/>
<path d="M36.0775 8.32031H34.969V9.42882H36.0775V8.32031Z" fill="#ED7402"/>
<path d="M34.5417 8.21558H33.2209V9.53635H34.5417V8.21558Z" fill="#ED7402"/>
<path d="M34.4344 8.32031H33.3259V9.42882H34.4344V8.32031Z" fill="#ED7402"/>
<path d="M32.8987 8.21558H31.5779V9.53635H32.8987V8.21558Z" fill="#ED7402"/>
<path d="M32.7914 8.32031H31.6829V9.42882H32.7914V8.32031Z" fill="#ED7402"/>
<path d="M31.2556 8.21558H29.9348V9.53635H31.2556V8.21558Z" fill="#CA2D17"/>
<path d="M31.1483 8.32031H30.0398V9.42882H31.1483V8.32031Z" fill="#CA2D17"/>
<path d="M29.6125 8.21558H28.2917V9.53635H29.6125V8.21558Z" fill="#CA2D17"/>
<path d="M29.5077 8.32031H28.3992V9.42882H29.5077V8.32031Z" fill="#CA2D17"/>
<path d="M41.1142 9.85596H39.7935V11.1767H41.1142V9.85596Z" fill="#E15012"/>
<path d="M41.0069 9.96338H39.8984V11.0719H41.0069V9.96338Z" fill="#E15012"/>
<path d="M39.4712 9.85596H38.1504V11.1767H39.4712V9.85596Z" fill="#E15012"/>
<path d="M39.3636 9.96338H38.2551V11.0719H39.3636V9.96338Z" fill="#E15012"/>
<path d="M37.8281 9.85596H36.5073V11.1767H37.8281V9.85596Z" fill="#E15012"/>
<path d="M37.7206 9.96338H36.6121V11.0719H37.7206V9.96338Z" fill="#E15012"/>
<path d="M36.1848 9.85596H34.864V11.1767H36.1848V9.85596Z" fill="#EE7C00"/>
<path d="M36.0775 9.96338H34.969V11.0719H36.0775V9.96338Z" fill="#EE7C00"/>
<path d="M34.5417 9.85596H33.2209V11.1767H34.5417V9.85596Z" fill="#F9DF00"/>
<path d="M34.4344 9.96338H33.3259V11.0719H34.4344V9.96338Z" fill="#F9DF00"/>
<path d="M32.8987 9.85596H31.5779V11.1767H32.8987V9.85596Z" fill="#ED7402"/>
<path d="M32.7914 9.96338H31.6829V11.0719H32.7914V9.96338Z" fill="#ED7402"/>
<path d="M31.2556 9.85596H29.9348V11.1767H31.2556V9.85596Z" fill="#ED7402"/>
<path d="M31.1483 9.96338H30.0398V11.0719H31.1483V9.96338Z" fill="#ED7402"/>
<path d="M29.6125 9.85596H28.2917V11.1767H29.6125V9.85596Z" fill="#CA2D17"/>
<path d="M29.5077 9.96338H28.3992V11.0719H29.5077V9.96338Z" fill="#CA2D17"/>
<path d="M27.9695 9.85596H26.6487V11.1767H27.9695V9.85596Z" fill="#CA2D17"/>
<path d="M27.8646 9.96338H26.7561V11.0719H27.8646V9.96338Z" fill="#CA2D17"/>
<path d="M41.1142 11.499H39.7935V12.8198H41.1142V11.499Z" fill="#E15012"/>
<path d="M41.0069 11.6064H39.8984V12.7149H41.0069V11.6064Z" fill="#E15012"/>
<path d="M39.4712 11.499H38.1504V12.8198H39.4712V11.499Z" fill="#E15012"/>
<path d="M39.3636 11.6064H38.2551V12.7149H39.3636V11.6064Z" fill="#E15012"/>
<path d="M37.8281 11.499H36.5073V12.8198H37.8281V11.499Z" fill="#ED7402"/>
<path d="M37.7206 11.6064H36.6121V12.7149H37.7206V11.6064Z" fill="#ED7402"/>
<path d="M36.1848 11.499H34.864V12.8198H36.1848V11.499Z" fill="#EE7C00"/>
<path d="M36.0775 11.6064H34.969V12.7149H36.0775V11.6064Z" fill="#EE7C00"/>
<path d="M34.5417 11.499H33.2209V12.8198H34.5417V11.499Z" fill="#F9DF00"/>
<path d="M34.4344 11.6064H33.3259V12.7149H34.4344V11.6064Z" fill="#F9DF00"/>
<path d="M32.8987 11.499H31.5779V12.8198H32.8987V11.499Z" fill="#F9DF00"/>
<path d="M32.7914 11.6064H31.6829V12.7149H32.7914V11.6064Z" fill="#F9DF00"/>
<path d="M31.2556 11.499H29.9348V12.8198H31.2556V11.499Z" fill="#ED7402"/>
<path d="M31.1483 11.6064H30.0398V12.7149H31.1483V11.6064Z" fill="#ED7402"/>
<path d="M29.6125 11.499H28.2917V12.8198H29.6125V11.499Z" fill="#ED7402"/>
<path d="M29.5077 11.6064H28.3992V12.7149H29.5077V11.6064Z" fill="#ED7402"/>
<path d="M27.9695 11.499H26.6487V12.8198H27.9695V11.499Z" fill="#CA2D17"/>
<path d="M27.8646 11.6064H26.7561V12.7149H27.8646V11.6064Z" fill="#CA2D17"/>
<path d="M41.1142 13.1421H39.7935V14.4629H41.1142V13.1421Z" fill="#E15012"/>
<path d="M41.0069 13.2495H39.8984V14.358H41.0069V13.2495Z" fill="#E15012"/>
<path d="M39.4712 13.1421H38.1504V14.4629H39.4712V13.1421Z" fill="#E15012"/>
<path d="M39.3636 13.2495H38.2551V14.358H39.3636V13.2495Z" fill="#E15012"/>
<path d="M37.8281 13.1421H36.5073V14.4629H37.8281V13.1421Z" fill="#EE7C00"/>
<path d="M37.7206 13.2495H36.6121V14.358H37.7206V13.2495Z" fill="#EE7C00"/>
<path d="M36.1848 13.1421H34.864V14.4629H36.1848V13.1421Z" fill="#EE7C00"/>
<path d="M36.0775 13.2495H34.969V14.358H36.0775V13.2495Z" fill="#EE7C00"/>
<path d="M34.5417 13.1421H33.2209V14.4629H34.5417V13.1421Z" fill="#F9DF00"/>
<path d="M34.4344 13.2495H33.3259V14.358H34.4344V13.2495Z" fill="#F9DF00"/>
<path d="M32.8987 13.1421H31.5779V14.4629H32.8987V13.1421Z" fill="#F9DF00"/>
<path d="M32.7914 13.2495H31.6829V14.358H32.7914V13.2495Z" fill="#F9DF00"/>
<path d="M31.2556 13.1421H29.9348V14.4629H31.2556V13.1421Z" fill="#F9DF00"/>
<path d="M31.1483 13.2495H30.0398V14.358H31.1483V13.2495Z" fill="#F9DF00"/>
<path d="M29.6125 13.1421H28.2917V14.4629H29.6125V13.1421Z" fill="#ED7402"/>
<path d="M29.5077 13.2495H28.3992V14.358H29.5077V13.2495Z" fill="#ED7402"/>
<path d="M27.9695 13.1421H26.6487V14.4629H27.9695V13.1421Z" fill="#ED7402"/>
<path d="M27.8646 13.2495H26.7561V14.358H27.8646V13.2495Z" fill="#ED7402"/>
<path d="M26.3261 13.1421H25.0054V14.4629H26.3261V13.1421Z" fill="#ED7402"/>
<path d="M26.2215 13.2495H25.113V14.358H26.2215V13.2495Z" fill="#ED7402"/>
<path d="M42.7573 14.7852H41.4365V16.1059H42.7573V14.7852Z" fill="#EE7C00"/>
<path d="M42.6498 14.8926H41.5413V16.0011H42.6498V14.8926Z" fill="#EE7C00"/>
<path d="M41.1142 14.7852H39.7935V16.1059H41.1142V14.7852Z" fill="#E15012"/>
<path d="M41.0069 14.8926H39.8984V16.0011H41.0069V14.8926Z" fill="#E15012"/>
<path d="M39.4712 14.7852H38.1504V16.1059H39.4712V14.7852Z" fill="#EE7C00"/>
<path d="M39.3636 14.8926H38.2551V16.0011H39.3636V14.8926Z" fill="#EE7C00"/>
<path d="M37.8281 14.7852H36.5073V16.1059H37.8281V14.7852Z" fill="#EE7C00"/>
<path d="M37.7206 14.8926H36.6121V16.0011H37.7206V14.8926Z" fill="#EE7C00"/>
<path d="M36.1848 14.7852H34.864V16.1059H36.1848V14.7852Z" fill="#EE7C00"/>
<path d="M36.0775 14.8926H34.969V16.0011H36.0775V14.8926Z" fill="#EE7C00"/>
<path d="M34.5417 14.7852H33.2209V16.1059H34.5417V14.7852Z" fill="#F9DF00"/>
<path d="M34.4344 14.8926H33.3259V16.0011H34.4344V14.8926Z" fill="#F9DF00"/>
<path d="M32.8987 14.7852H31.5779V16.1059H32.8987V14.7852Z" fill="#F9DF00"/>
<path d="M32.7914 14.8926H31.6829V16.0011H32.7914V14.8926Z" fill="#F9DF00"/>
<path d="M31.2556 14.7852H29.9348V16.1059H31.2556V14.7852Z" fill="#F9DF00"/>
<path d="M31.1483 14.8926H30.0398V16.0011H31.1483V14.8926Z" fill="#F9DF00"/>
<path d="M29.6125 14.7852H28.2917V16.1059H29.6125V14.7852Z" fill="#ED7402"/>
<path d="M29.5077 14.8926H28.3992V16.0011H29.5077V14.8926Z" fill="#ED7402"/>
<path d="M27.9695 14.7852H26.6487V16.1059H27.9695V14.7852Z" fill="#ED7402"/>
<path d="M27.8646 14.8926H26.7561V16.0011H27.8646V14.8926Z" fill="#ED7402"/>
<path d="M26.3261 14.7852H25.0054V16.1059H26.3261V14.7852Z" fill="#ED7402"/>
<path d="M26.2215 14.8926H25.113V16.0011H26.2215V14.8926Z" fill="#ED7402"/>
<path d="M42.7573 16.4285H41.4365V17.7492H42.7573V16.4285Z" fill="#EE7C00"/>
<path d="M42.6498 16.5332H41.5413V17.6417H42.6498V16.5332Z" fill="#EE7C00"/>
<path d="M41.1142 16.4285H39.7935V17.7492H41.1142V16.4285Z" fill="#EE7C00"/>
<path d="M41.0069 16.5332H39.8984V17.6417H41.0069V16.5332Z" fill="#EE7C00"/>
<path d="M39.4712 16.4285H38.1504V17.7492H39.4712V16.4285Z" fill="#EE7C00"/>
<path d="M39.3636 16.5332H38.2551V17.6417H39.3636V16.5332Z" fill="#EE7C00"/>
<path d="M37.8281 16.4285H36.5073V17.7492H37.8281V16.4285Z" fill="#EE7C00"/>
<path d="M37.7206 16.5332H36.6121V17.6417H37.7206V16.5332Z" fill="#EE7C00"/>
<path d="M36.1848 16.4285H34.864V17.7492H36.1848V16.4285Z" fill="#EE7C00"/>
<path d="M36.0775 16.5332H34.969V17.6417H36.0775V16.5332Z" fill="#EE7C00"/>
<path d="M34.5417 16.4285H33.2209V17.7492H34.5417V16.4285Z" fill="#F9DF00"/>
<path d="M34.4344 16.5332H33.3259V17.6417H34.4344V16.5332Z" fill="#F9DF00"/>
<path d="M32.8987 16.4285H31.5779V17.7492H32.8987V16.4285Z" fill="#F9DF00"/>
<path d="M32.7914 16.5332H31.6829V17.6417H32.7914V16.5332Z" fill="#F9DF00"/>
<path d="M31.2556 16.4285H29.9348V17.7492H31.2556V16.4285Z" fill="#F9DF00"/>
<path d="M31.1483 16.5332H30.0398V17.6417H31.1483V16.5332Z" fill="#F9DF00"/>
<path d="M29.6125 16.4285H28.2917V17.7492H29.6125V16.4285Z" fill="#F9DF00"/>
<path d="M29.5077 16.5332H28.3992V17.6417H29.5077V16.5332Z" fill="#F9DF00"/>
<path d="M27.9695 16.4285H26.6487V17.7492H27.9695V16.4285Z" fill="#ED7402"/>
<path d="M27.8646 16.5332H26.7561V17.6417H27.8646V16.5332Z" fill="#ED7402"/>
<path d="M26.3261 16.4285H25.0054V17.7492H26.3261V16.4285Z" fill="#ED7402"/>
<path d="M26.2215 16.5332H25.113V17.6417H26.2215V16.5332Z" fill="#ED7402"/>
<path d="M23.0403 16.4285H21.7195V17.7492H23.0403V16.4285Z" fill="#ED7402"/>
<path d="M22.9354 16.5332H21.8269V17.6417H22.9354V16.5332Z" fill="#ED7402"/>
<path d="M47.6841 18.0715H46.3633V19.3923H47.6841V18.0715Z" fill="#EE7C00"/>
<path d="M47.5792 18.1763H46.4707V19.2848H47.5792V18.1763Z" fill="#EE7C00"/>
<path d="M46.0407 18.0715H44.72V19.3923H46.0407V18.0715Z" fill="#EE7C00"/>
<path d="M45.9361 18.1763H44.8276V19.2848H45.9361V18.1763Z" fill="#EE7C00"/>
<path d="M42.7573 18.0715H41.4365V19.3923H42.7573V18.0715Z" fill="#EE7C00"/>
<path d="M42.6498 18.1763H41.5413V19.2848H42.6498V18.1763Z" fill="#EE7C00"/>
<path d="M41.1142 18.0715H39.7935V19.3923H41.1142V18.0715Z" fill="#F4AC00"/>
<path d="M41.0069 18.1763H39.8984V19.2848H41.0069V18.1763Z" fill="#F4AC00"/>
<path d="M39.4712 18.0715H38.1504V19.3923H39.4712V18.0715Z" fill="#F4AC00"/>
<path d="M39.3636 18.1763H38.2551V19.2848H39.3636V18.1763Z" fill="#F4AC00"/>
<path d="M37.8281 18.0715H36.5073V19.3923H37.8281V18.0715Z" fill="#F4AC00"/>
<path d="M37.7206 18.1763H36.6121V19.2848H37.7206V18.1763Z" fill="#F4AC00"/>
<path d="M36.1848 18.0715H34.864V19.3923H36.1848V18.0715Z" fill="#F9DF00"/>
<path d="M36.0775 18.1763H34.969V19.2848H36.0775V18.1763Z" fill="#F9DF00"/>
<path d="M34.5417 18.0715H33.2209V19.3923H34.5417V18.0715Z" fill="#F9DF00"/>
<path d="M34.4344 18.1763H33.3259V19.2848H34.4344V18.1763Z" fill="#F9DF00"/>
<path d="M32.8987 18.0715H31.5779V19.3923H32.8987V18.0715Z" fill="#F9DF00"/>
<path d="M32.7914 18.1763H31.6829V19.2848H32.7914V18.1763Z" fill="#F9DF00"/>
<path d="M31.2556 18.0715H29.9348V19.3923H31.2556V18.0715Z" fill="#F9DF00"/>
<path d="M31.1483 18.1763H30.0398V19.2848H31.1483V18.1763Z" fill="#F9DF00"/>
<path d="M29.6125 18.0715H28.2917V19.3923H29.6125V18.0715Z" fill="#F9DF00"/>
<path d="M29.5077 18.1763H28.3992V19.2848H29.5077V18.1763Z" fill="#F9DF00"/>
<path d="M27.9695 18.0715H26.6487V19.3923H27.9695V18.0715Z" fill="#ED7402"/>
<path d="M27.8646 18.1763H26.7561V19.2848H27.8646V18.1763Z" fill="#ED7402"/>
<path d="M26.3261 18.0715H25.0054V19.3923H26.3261V18.0715Z" fill="#ED7402"/>
<path d="M26.2215 18.1763H25.113V19.2848H26.2215V18.1763Z" fill="#ED7402"/>
<path d="M24.6858 18.0715H23.365V19.3923H24.6858V18.0715Z" fill="#ED7402"/>
<path d="M24.5782 18.1763H23.4697V19.2848H24.5782V18.1763Z" fill="#ED7402"/>
<path d="M23.0403 18.0715H21.7195V19.3923H23.0403V18.0715Z" fill="#ED7402"/>
<path d="M22.9354 18.1763H21.8269V19.2848H22.9354V18.1763Z" fill="#ED7402"/>
<path d="M47.6841 19.7146H46.3633V21.0354H47.6841V19.7146Z" fill="#EE7C00"/>
<path d="M47.5792 19.8196H46.4707V20.9281H47.5792V19.8196Z" fill="#EE7C00"/>
<path d="M46.0407 19.7146H44.72V21.0354H46.0407V19.7146Z" fill="#EE7C00"/>
<path d="M45.9361 19.8196H44.8276V20.9281H45.9361V19.8196Z" fill="#EE7C00"/>
<path d="M44.3977 19.7146H43.0769V21.0354H44.3977V19.7146Z" fill="#EE7C00"/>
<path d="M44.2928 19.8196H43.1843V20.9281H44.2928V19.8196Z" fill="#EE7C00"/>
<path d="M42.7573 19.7146H41.4365V21.0354H42.7573V19.7146Z" fill="#EE7C00"/>
<path d="M42.6498 19.8196H41.5413V20.9281H42.6498V19.8196Z" fill="#EE7C00"/>
<path d="M41.1142 19.7146H39.7935V21.0354H41.1142V19.7146Z" fill="#F4AC00"/>
<path d="M41.0069 19.8196H39.8984V20.9281H41.0069V19.8196Z" fill="#F4AC00"/>
<path d="M39.4712 19.7146H38.1504V21.0354H39.4712V19.7146Z" fill="#F4AC00"/>
<path d="M39.3636 19.8196H38.2551V20.9281H39.3636V19.8196Z" fill="#F4AC00"/>
<path d="M37.8281 19.7146H36.5073V21.0354H37.8281V19.7146Z" fill="#F4AC00"/>
<path d="M37.7206 19.8196H36.6121V20.9281H37.7206V19.8196Z" fill="#F4AC00"/>
<path d="M36.1848 19.7146H34.864V21.0354H36.1848V19.7146Z" fill="#F9DF00"/>
<path d="M36.0775 19.8196H34.969V20.9281H36.0775V19.8196Z" fill="#F9DF00"/>
<path d="M34.5417 19.7146H33.2209V21.0354H34.5417V19.7146Z" fill="#F9DF00"/>
<path d="M34.4344 19.8196H33.3259V20.9281H34.4344V19.8196Z" fill="#F9DF00"/>
<path d="M32.8987 19.7146H31.5779V21.0354H32.8987V19.7146Z" fill="#F9DF00"/>
<path d="M32.7914 19.8196H31.6829V20.9281H32.7914V19.8196Z" fill="#F9DF00"/>
<path d="M31.2556 19.7146H29.9348V21.0354H31.2556V19.7146Z" fill="#F9DF00"/>
<path d="M31.1483 19.8196H30.0398V20.9281H31.1483V19.8196Z" fill="#F9DF00"/>
<path d="M29.6125 19.7146H28.2917V21.0354H29.6125V19.7146Z" fill="#F9DF00"/>
<path d="M29.5077 19.8196H28.3992V20.9281H29.5077V19.8196Z" fill="#F9DF00"/>
<path d="M27.9695 19.7146H26.6487V21.0354H27.9695V19.7146Z" fill="#ED7402"/>
<path d="M27.8646 19.8196H26.7561V20.9281H27.8646V19.8196Z" fill="#ED7402"/>
<path d="M26.3261 19.7146H25.0054V21.0354H26.3261V19.7146Z" fill="#ED7402"/>
<path d="M26.2215 19.8196H25.113V20.9281H26.2215V19.8196Z" fill="#ED7402"/>
<path d="M24.6858 19.7146H23.365V21.0354H24.6858V19.7146Z" fill="#ED7402"/>
<path d="M24.5782 19.8196H23.4697V20.9281H24.5782V19.8196Z" fill="#ED7402"/>
<path d="M23.0403 19.7146H21.7195V21.0354H23.0403V19.7146Z" fill="#F4AC00"/>
<path d="M22.9354 19.8196H21.8269V20.9281H22.9354V19.8196Z" fill="#F4AC00"/>
<path d="M21.3996 19.7146H20.0789V21.0354H21.3996V19.7146Z" fill="#ED7402"/>
<path d="M21.2923 19.8196H20.1838V20.9281H21.2923V19.8196Z" fill="#ED7402"/>
<path d="M49.3271 21.3577H48.0063V22.6784H49.3271V21.3577Z" fill="#EE7C00"/>
<path d="M49.2223 21.4624H48.1138V22.5709H49.2223V21.4624Z" fill="#EE7C00"/>
<path d="M47.6841 21.3577H46.3633V22.6784H47.6841V21.3577Z" fill="#EE7C00"/>
<path d="M47.5792 21.4624H46.4707V22.5709H47.5792V21.4624Z" fill="#EE7C00"/>
<path d="M46.0407 21.3577H44.72V22.6784H46.0407V21.3577Z" fill="#EE7C00"/>
<path d="M45.9361 21.4624H44.8276V22.5709H45.9361V21.4624Z" fill="#EE7C00"/>
<path d="M44.3977 21.3577H43.0769V22.6784H44.3977V21.3577Z" fill="#EE7C00"/>
<path d="M44.2928 21.4624H43.1843V22.5709H44.2928V21.4624Z" fill="#EE7C00"/>
<path d="M42.7573 21.3577H41.4365V22.6784H42.7573V21.3577Z" fill="#F4AC00"/>
<path d="M42.6498 21.4624H41.5413V22.5709H42.6498V21.4624Z" fill="#F4AC00"/>
<path d="M41.1142 21.3577H39.7935V22.6784H41.1142V21.3577Z" fill="#F4AC00"/>
<path d="M41.0069 21.4624H39.8984V22.5709H41.0069V21.4624Z" fill="#F4AC00"/>
<path d="M39.4712 21.3577H38.1504V22.6784H39.4712V21.3577Z" fill="#F4AC00"/>
<path d="M39.3636 21.4624H38.2551V22.5709H39.3636V21.4624Z" fill="#F4AC00"/>
<path d="M37.8281 21.3577H36.5073V22.6784H37.8281V21.3577Z" fill="#F9DF00"/>
<path d="M37.7206 21.4624H36.6121V22.5709H37.7206V21.4624Z" fill="#F9DF00"/>
<path d="M36.1848 21.3577H34.864V22.6784H36.1848V21.3577Z" fill="#F9DF00"/>
<path d="M36.0775 21.4624H34.969V22.5709H36.0775V21.4624Z" fill="#F9DF00"/>
<path d="M34.5417 21.3577H33.2209V22.6784H34.5417V21.3577Z" fill="#F9DF00"/>
<path d="M34.4344 21.4624H33.3259V22.5709H34.4344V21.4624Z" fill="#F9DF00"/>
<path d="M32.8987 21.3577H31.5779V22.6784H32.8987V21.3577Z" fill="#F9DF00"/>
<path d="M32.7914 21.4624H31.6829V22.5709H32.7914V21.4624Z" fill="#F9DF00"/>
<path d="M31.2556 21.3577H29.9348V22.6784H31.2556V21.3577Z" fill="#F9DF00"/>
<path d="M31.1483 21.4624H30.0398V22.5709H31.1483V21.4624Z" fill="#F9DF00"/>
<path d="M29.6125 21.3577H28.2917V22.6784H29.6125V21.3577Z" fill="#F9DF00"/>
<path d="M29.5077 21.4624H28.3992V22.5709H29.5077V21.4624Z" fill="#F9DF00"/>
<path d="M27.9695 21.3577H26.6487V22.6784H27.9695V21.3577Z" fill="#ED7402"/>
<path d="M27.8646 21.4624H26.7561V22.5709H27.8646V21.4624Z" fill="#ED7402"/>
<path d="M26.3261 21.3577H25.0054V22.6784H26.3261V21.3577Z" fill="#ED7402"/>
<path d="M26.2215 21.4624H25.113V22.5709H26.2215V21.4624Z" fill="#ED7402"/>
<path d="M24.6858 21.3577H23.365V22.6784H24.6858V21.3577Z" fill="#F4AC00"/>
<path d="M24.5782 21.4624H23.4697V22.5709H24.5782V21.4624Z" fill="#F4AC00"/>
<path d="M23.0403 21.3577H21.7195V22.6784H23.0403V21.3577Z" fill="#F4AC00"/>
<path d="M22.9354 21.4624H21.8269V22.5709H22.9354V21.4624Z" fill="#F4AC00"/>
<path d="M21.3996 21.3577H20.0789V22.6784H21.3996V21.3577Z" fill="#ED7402"/>
<path d="M21.2923 21.4624H20.1838V22.5709H21.2923V21.4624Z" fill="#ED7402"/>
<path d="M50.9702 23.0007H49.6494V24.3215H50.9702V23.0007Z" fill="#EE7C00"/>
<path d="M50.8627 23.1057H49.7542V24.2142H50.8627V23.1057Z" fill="#EE7C00"/>
<path d="M49.3271 23.0007H48.0063V24.3215H49.3271V23.0007Z" fill="#F4A200"/>
<path d="M49.2223 23.1057H48.1138V24.2142H49.2223V23.1057Z" fill="#F4A200"/>
<path d="M47.6841 23.0007H46.3633V24.3215H47.6841V23.0007Z" fill="#F4A200"/>
<path d="M47.5792 23.1057H46.4707V24.2142H47.5792V23.1057Z" fill="#F4A200"/>
<path d="M46.0407 23.0007H44.72V24.3215H46.0407V23.0007Z" fill="#F9DF00"/>
<path d="M45.9361 23.1057H44.8276V24.2142H45.9361V23.1057Z" fill="#F9DF00"/>
<path d="M44.3977 23.0007H43.0769V24.3215H44.3977V23.0007Z" fill="#EE7C00"/>
<path d="M44.2928 23.1057H43.1843V24.2142H44.2928V23.1057Z" fill="#EE7C00"/>
<path d="M42.7573 23.0007H41.4365V24.3215H42.7573V23.0007Z" fill="#F4AC00"/>
<path d="M42.6498 23.1057H41.5413V24.2142H42.6498V23.1057Z" fill="#F4AC00"/>
<path d="M41.1142 23.0007H39.7935V24.3215H41.1142V23.0007Z" fill="#F4AC00"/>
<path d="M41.0069 23.1057H39.8984V24.2142H41.0069V23.1057Z" fill="#F4AC00"/>
<path d="M39.4712 23.0007H38.1504V24.3215H39.4712V23.0007Z" fill="#F9DF00"/>
<path d="M39.3636 23.1057H38.2551V24.2142H39.3636V23.1057Z" fill="#F9DF00"/>
<path d="M37.8281 23.0007H36.5073V24.3215H37.8281V23.0007Z" fill="#F9DF00"/>
<path d="M37.7206 23.1057H36.6121V24.2142H37.7206V23.1057Z" fill="#F9DF00"/>
<path d="M36.1848 23.0007H34.864V24.3215H36.1848V23.0007Z" fill="#F9DF00"/>
<path d="M36.0775 23.1057H34.969V24.2142H36.0775V23.1057Z" fill="#F9DF00"/>
<path d="M34.5417 23.0007H33.2209V24.3215H34.5417V23.0007Z" fill="#F9DF00"/>
<path d="M34.4344 23.1057H33.3259V24.2142H34.4344V23.1057Z" fill="#F9DF00"/>
<path d="M32.8987 23.0007H31.5779V24.3215H32.8987V23.0007Z" fill="#F9DF00"/>
<path d="M32.7914 23.1057H31.6829V24.2142H32.7914V23.1057Z" fill="#F9DF00"/>
<path d="M31.2556 23.0007H29.9348V24.3215H31.2556V23.0007Z" fill="#F9DF00"/>
<path d="M31.1483 23.1057H30.0398V24.2142H31.1483V23.1057Z" fill="#F9DF00"/>
<path d="M29.6125 23.0007H28.2917V24.3215H29.6125V23.0007Z" fill="#F4AC00"/>
<path d="M29.5077 23.1057H28.3992V24.2142H29.5077V23.1057Z" fill="#F4AC00"/>
<path d="M27.9695 23.0007H26.6487V24.3215H27.9695V23.0007Z" fill="#F9DF00"/>
<path d="M27.8646 23.1057H26.7561V24.2142H27.8646V23.1057Z" fill="#F9DF00"/>
<path d="M26.3261 23.0007H25.0054V24.3215H26.3261V23.0007Z" fill="#F4AC00"/>
<path d="M26.2215 23.1057H25.113V24.2142H26.2215V23.1057Z" fill="#F4AC00"/>
<path d="M24.6858 23.0007H23.365V24.3215H24.6858V23.0007Z" fill="#F4AC00"/>
<path d="M24.5782 23.1057H23.4697V24.2142H24.5782V23.1057Z" fill="#F4AC00"/>
<path d="M23.0403 23.0007H21.7195V24.3215H23.0403V23.0007Z" fill="#F4AC00"/>
<path d="M22.9354 23.1057H21.8269V24.2142H22.9354V23.1057Z" fill="#F4AC00"/>
<path d="M21.3996 23.0007H20.0789V24.3215H21.3996V23.0007Z" fill="#ED7402"/>
<path d="M21.2923 23.1057H20.1838V24.2142H21.2923V23.1057Z" fill="#ED7402"/>
<path d="M19.7563 23.0007H18.4355V24.3215H19.7563V23.0007Z" fill="#ED7402"/>
<path d="M19.649 23.1057H18.5405V24.2142H19.649V23.1057Z" fill="#ED7402"/>
<path d="M50.9702 24.644H49.6494V25.9648H50.9702V24.644Z" fill="#EE7C00"/>
<path d="M50.8627 24.7488H49.7542V25.8573H50.8627V24.7488Z" fill="#EE7C00"/>
<path d="M49.3271 24.644H48.0063V25.9648H49.3271V24.644Z" fill="#F4A200"/>
<path d="M49.2223 24.7488H48.1138V25.8573H49.2223V24.7488Z" fill="#F4A200"/>
<path d="M47.6841 24.644H46.3633V25.9648H47.6841V24.644Z" fill="#F4A200"/>
<path d="M47.5792 24.7488H46.4707V25.8573H47.5792V24.7488Z" fill="#F4A200"/>
<path d="M46.0407 24.644H44.72V25.9648H46.0407V24.644Z" fill="#F9DF00"/>
<path d="M45.9361 24.7488H44.8276V25.8573H45.9361V24.7488Z" fill="#F9DF00"/>
<path d="M44.3977 24.644H43.0769V25.9648H44.3977V24.644Z" fill="#EE7C00"/>
<path d="M44.2928 24.7488H43.1843V25.8573H44.2928V24.7488Z" fill="#EE7C00"/>
<path d="M42.7573 24.644H41.4365V25.9648H42.7573V24.644Z" fill="#F4AC00"/>
<path d="M42.6498 24.7488H41.5413V25.8573H42.6498V24.7488Z" fill="#F4AC00"/>
<path d="M41.1142 24.644H39.7935V25.9648H41.1142V24.644Z" fill="#F4AC00"/>
<path d="M41.0069 24.7488H39.8984V25.8573H41.0069V24.7488Z" fill="#F4AC00"/>
<path d="M39.4712 24.644H38.1504V25.9648H39.4712V24.644Z" fill="#F9DF00"/>
<path d="M39.3636 24.7488H38.2551V25.8573H39.3636V24.7488Z" fill="#F9DF00"/>
<path d="M37.8281 24.644H36.5073V25.9648H37.8281V24.644Z" fill="#F9DF00"/>
<path d="M37.7206 24.7488H36.6121V25.8573H37.7206V24.7488Z" fill="#F9DF00"/>
<path d="M36.1848 24.644H34.864V25.9648H36.1848V24.644Z" fill="#F9DF00"/>
<path d="M36.0775 24.7488H34.969V25.8573H36.0775V24.7488Z" fill="#F9DF00"/>
<path d="M34.5417 24.644H33.2209V25.9648H34.5417V24.644Z" fill="#F9DF00"/>
<path d="M34.4344 24.7488H33.3259V25.8573H34.4344V24.7488Z" fill="#F9DF00"/>
<path d="M31.2556 24.644H29.9348V25.9648H31.2556V24.644Z" fill="#F9DF00"/>
<path d="M31.1483 24.7488H30.0398V25.8573H31.1483V24.7488Z" fill="#F9DF00"/>
<path d="M29.6125 24.644H28.2917V25.9648H29.6125V24.644Z" fill="#F4AC00"/>
<path d="M29.5077 24.7488H28.3992V25.8573H29.5077V24.7488Z" fill="#F4AC00"/>
<path d="M27.9695 24.644H26.6487V25.9648H27.9695V24.644Z" fill="#F9DF00"/>
<path d="M27.8646 24.7488H26.7561V25.8573H27.8646V24.7488Z" fill="#F9DF00"/>
<path d="M26.3261 24.644H25.0054V25.9648H26.3261V24.644Z" fill="#F4AC00"/>
<path d="M26.2215 24.7488H25.113V25.8573H26.2215V24.7488Z" fill="#F4AC00"/>
<path d="M24.6858 24.644H23.365V25.9648H24.6858V24.644Z" fill="#F4AC00"/>
<path d="M24.5782 24.7488H23.4697V25.8573H24.5782V24.7488Z" fill="#F4AC00"/>
<path d="M23.0403 24.644H21.7195V25.9648H23.0403V24.644Z" fill="#F4AC00"/>
<path d="M22.9354 24.7488H21.8269V25.8573H22.9354V24.7488Z" fill="#F4AC00"/>
<path d="M21.3996 24.644H20.0789V25.9648H21.3996V24.644Z" fill="#ED7402"/>
<path d="M21.2923 24.7488H20.1838V25.8573H21.2923V24.7488Z" fill="#ED7402"/>
<path d="M19.7563 24.644H18.4355V25.9648H19.7563V24.644Z" fill="#ED7402"/>
<path d="M19.649 24.7488H18.5405V25.8573H19.649V24.7488Z" fill="#ED7402"/>
<path d="M50.9702 26.2844H49.6494V27.6052H50.9702V26.2844Z" fill="#EE7C00"/>
<path d="M50.8627 26.3918H49.7542V27.5003H50.8627V26.3918Z" fill="#EE7C00"/>
<path d="M49.3271 26.2844H48.0063V27.6052H49.3271V26.2844Z" fill="#F4A200"/>
<path d="M49.2223 26.3918H48.1138V27.5003H49.2223V26.3918Z" fill="#F4A200"/>
<path d="M47.6841 26.2844H46.3633V27.6052H47.6841V26.2844Z" fill="#F9DF00"/>
<path d="M47.5792 26.3918H46.4707V27.5003H47.5792V26.3918Z" fill="#F9DF00"/>
<path d="M46.0407 26.2844H44.72V27.6052H46.0407V26.2844Z" fill="#F9DF00"/>
<path d="M45.9361 26.3918H44.8276V27.5003H45.9361V26.3918Z" fill="#F9DF00"/>
<path d="M44.3977 26.2844H43.0769V27.6052H44.3977V26.2844Z" fill="#F9DF00"/>
<path d="M44.2928 26.3918H43.1843V27.5003H44.2928V26.3918Z" fill="#F9DF00"/>
<path d="M42.7573 26.2844H41.4365V27.6052H42.7573V26.2844Z" fill="#F4AC00"/>
<path d="M42.6498 26.3918H41.5413V27.5003H42.6498V26.3918Z" fill="#F4AC00"/>
<path d="M41.1142 26.2844H39.7935V27.6052H41.1142V26.2844Z" fill="#F9DF00"/>
<path d="M41.0069 26.3918H39.8984V27.5003H41.0069V26.3918Z" fill="#F9DF00"/>
<path d="M39.4712 26.2844H38.1504V27.6052H39.4712V26.2844Z" fill="#F9DF00"/>
<path d="M39.3636 26.3918H38.2551V27.5003H39.3636V26.3918Z" fill="#F9DF00"/>
<path d="M37.8281 26.2844H36.5073V27.6052H37.8281V26.2844Z" fill="#F9DF00"/>
<path d="M37.7206 26.3918H36.6121V27.5003H37.7206V26.3918Z" fill="#F9DF00"/>
<path d="M36.1848 26.2844H34.864V27.6052H36.1848V26.2844Z" fill="#F9DF00"/>
<path d="M36.0775 26.3918H34.969V27.5003H36.0775V26.3918Z" fill="#F9DF00"/>
<path d="M34.5417 26.2844H33.2209V27.6052H34.5417V26.2844Z" fill="#F9DF00"/>
<path d="M34.4344 26.3918H33.3259V27.5003H34.4344V26.3918Z" fill="#F9DF00"/>
<path d="M31.2556 26.2844H29.9348V27.6052H31.2556V26.2844Z" fill="#F9DF00"/>
<path d="M31.1483 26.3918H30.0398V27.5003H31.1483V26.3918Z" fill="#F9DF00"/>
<path d="M29.6125 26.2844H28.2917V27.6052H29.6125V26.2844Z" fill="#F4AC00"/>
<path d="M29.5077 26.3918H28.3992V27.5003H29.5077V26.3918Z" fill="#F4AC00"/>
<path d="M27.9695 26.2844H26.6487V27.6052H27.9695V26.2844Z" fill="#F9DF00"/>
<path d="M27.8646 26.3918H26.7561V27.5003H27.8646V26.3918Z" fill="#F9DF00"/>
<path d="M26.3261 26.2844H25.0054V27.6052H26.3261V26.2844Z" fill="#F4AC00"/>
<path d="M26.2215 26.3918H25.113V27.5003H26.2215V26.3918Z" fill="#F4AC00"/>
<path d="M24.6858 26.2844H23.365V27.6052H24.6858V26.2844Z" fill="#F4AC00"/>
<path d="M24.5782 26.3918H23.4697V27.5003H24.5782V26.3918Z" fill="#F4AC00"/>
<path d="M23.0403 26.2844H21.7195V27.6052H23.0403V26.2844Z" fill="#F4AC00"/>
<path d="M22.9354 26.3918H21.8269V27.5003H22.9354V26.3918Z" fill="#F4AC00"/>
<path d="M21.3996 26.2844H20.0789V27.6052H21.3996V26.2844Z" fill="#ED7402"/>
<path d="M21.2923 26.3918H20.1838V27.5003H21.2923V26.3918Z" fill="#ED7402"/>
<path d="M19.7563 26.2844H18.4355V27.6052H19.7563V26.2844Z" fill="#ED7402"/>
<path d="M19.649 26.3918H18.5405V27.5003H19.649V26.3918Z" fill="#ED7402"/>
<path d="M50.9702 27.9275H49.6494V29.2483H50.9702V27.9275Z" fill="#EE7C00"/>
<path d="M50.8627 28.0349H49.7542V29.1434H50.8627V28.0349Z" fill="#EE7C00"/>
<path d="M49.3271 27.9275H48.0063V29.2483H49.3271V27.9275Z" fill="#F4A200"/>
<path d="M49.2223 28.0349H48.1138V29.1434H49.2223V28.0349Z" fill="#F4A200"/>
<path d="M47.6841 27.9275H46.3633V29.2483H47.6841V27.9275Z" fill="#F9DF00"/>
<path d="M47.5792 28.0349H46.4707V29.1434H47.5792V28.0349Z" fill="#F9DF00"/>
<path d="M46.0407 27.9275H44.72V29.2483H46.0407V27.9275Z" fill="#F9DF00"/>
<path d="M45.9361 28.0349H44.8276V29.1434H45.9361V28.0349Z" fill="#F9DF00"/>
<path d="M44.3977 27.9275H43.0769V29.2483H44.3977V27.9275Z" fill="#F9DF00"/>
<path d="M44.2928 28.0349H43.1843V29.1434H44.2928V28.0349Z" fill="#F9DF00"/>
<path d="M42.7573 27.9275H41.4365V29.2483H42.7573V27.9275Z" fill="#F9DF00"/>
<path d="M42.6498 28.0349H41.5413V29.1434H42.6498V28.0349Z" fill="#F9DF00"/>
<path d="M41.1142 27.9275H39.7935V29.2483H41.1142V27.9275Z" fill="#F9DF00"/>
<path d="M41.0069 28.0349H39.8984V29.1434H41.0069V28.0349Z" fill="#F9DF00"/>
<path d="M39.4712 27.9275H38.1504V29.2483H39.4712V27.9275Z" fill="#F9DF00"/>
<path d="M39.3636 28.0349H38.2551V29.1434H39.3636V28.0349Z" fill="#F9DF00"/>
<path d="M37.8281 27.9275H36.5073V29.2483H37.8281V27.9275Z" fill="#F9DF00"/>
<path d="M37.7206 28.0349H36.6121V29.1434H37.7206V28.0349Z" fill="#F9DF00"/>
<path d="M31.2556 27.9275H29.9348V29.2483H31.2556V27.9275Z" fill="#F9DF00"/>
<path d="M31.1483 28.0349H30.0398V29.1434H31.1483V28.0349Z" fill="#F9DF00"/>
<path d="M29.6125 27.9275H28.2917V29.2483H29.6125V27.9275Z" fill="#F9DF00"/>
<path d="M29.5077 28.0349H28.3992V29.1434H29.5077V28.0349Z" fill="#F9DF00"/>
<path d="M27.9695 27.9275H26.6487V29.2483H27.9695V27.9275Z" fill="#F9DF00"/>
<path d="M27.8646 28.0349H26.7561V29.1434H27.8646V28.0349Z" fill="#F9DF00"/>
<path d="M26.3261 27.9275H25.0054V29.2483H26.3261V27.9275Z" fill="#F9DF00"/>
<path d="M26.2215 28.0349H25.113V29.1434H26.2215V28.0349Z" fill="#F9DF00"/>
<path d="M24.6858 27.9275H23.365V29.2483H24.6858V27.9275Z" fill="#F4AC00"/>
<path d="M24.5782 28.0349H23.4697V29.1434H24.5782V28.0349Z" fill="#F4AC00"/>
<path d="M23.0403 27.9275H21.7195V29.2483H23.0403V27.9275Z" fill="#F4AC00"/>
<path d="M22.9354 28.0349H21.8269V29.1434H22.9354V28.0349Z" fill="#F4AC00"/>
<path d="M21.3996 27.9275H20.0789V29.2483H21.3996V27.9275Z" fill="#ED7402"/>
<path d="M21.2923 28.0349H20.1838V29.1434H21.2923V28.0349Z" fill="#ED7402"/>
<path d="M19.7563 27.9275H18.4355V29.2483H19.7563V27.9275Z" fill="#ED7402"/>
<path d="M19.649 28.0349H18.5405V29.1434H19.649V28.0349Z" fill="#ED7402"/>
<path d="M49.3271 29.5706H48.0063V30.8913H49.3271V29.5706Z" fill="#F4A200"/>
<path d="M49.2223 29.678H48.1138V30.7865H49.2223V29.678Z" fill="#F4A200"/>
<path d="M47.6841 29.5706H46.3633V30.8913H47.6841V29.5706Z" fill="#F9DF00"/>
<path d="M47.5792 29.678H46.4707V30.7865H47.5792V29.678Z" fill="#F9DF00"/>
<path d="M46.0407 29.5706H44.72V30.8913H46.0407V29.5706Z" fill="#F9DF00"/>
<path d="M45.9361 29.678H44.8276V30.7865H45.9361V29.678Z" fill="#F9DF00"/>
<path d="M44.3977 29.5706H43.0769V30.8913H44.3977V29.5706Z" fill="#F9DF00"/>
<path d="M44.2928 29.678H43.1843V30.7865H44.2928V29.678Z" fill="#F9DF00"/>
<path d="M42.7573 29.5706H41.4365V30.8913H42.7573V29.5706Z" fill="#F9DF00"/>
<path d="M42.6498 29.678H41.5413V30.7865H42.6498V29.678Z" fill="#F9DF00"/>
<path d="M41.1142 29.5706H39.7935V30.8913H41.1142V29.5706Z" fill="#F9DF00"/>
<path d="M41.0069 29.678H39.8984V30.7865H41.0069V29.678Z" fill="#F9DF00"/>
<path d="M39.4712 29.5706H38.1504V30.8913H39.4712V29.5706Z" fill="#F9DF00"/>
<path d="M39.3636 29.678H38.2551V30.7865H39.3636V29.678Z" fill="#F9DF00"/>
<path d="M31.2556 29.5706H29.9348V30.8913H31.2556V29.5706Z" fill="#F9DF00"/>
<path d="M31.1483 29.678H30.0398V30.7865H31.1483V29.678Z" fill="#F9DF00"/>
<path d="M29.6125 29.5706H28.2917V30.8913H29.6125V29.5706Z" fill="#F9DF00"/>
<path d="M29.5077 29.678H28.3992V30.7865H29.5077V29.678Z" fill="#F9DF00"/>
<path d="M27.9695 29.5706H26.6487V30.8913H27.9695V29.5706Z" fill="#F9DF00"/>
<path d="M27.8646 29.678H26.7561V30.7865H27.8646V29.678Z" fill="#F9DF00"/>
<path d="M26.3261 29.5706H25.0054V30.8913H26.3261V29.5706Z" fill="#F9DF00"/>
<path d="M26.2215 29.678H25.113V30.7865H26.2215V29.678Z" fill="#F9DF00"/>
<path d="M24.6858 29.5706H23.365V30.8913H24.6858V29.5706Z" fill="#F4AC00"/>
<path d="M24.5782 29.678H23.4697V30.7865H24.5782V29.678Z" fill="#F4AC00"/>
<path d="M23.0403 29.5706H21.7195V30.8913H23.0403V29.5706Z" fill="#F4AC00"/>
<path d="M22.9354 29.678H21.8269V30.7865H22.9354V29.678Z" fill="#F4AC00"/>
<path d="M21.3996 29.5706H20.0789V30.8913H21.3996V29.5706Z" fill="#F4AC00"/>
<path d="M21.2923 29.678H20.1838V30.7865H21.2923V29.678Z" fill="#F4AC00"/>
<path d="M19.7563 29.5706H18.4355V30.8913H19.7563V29.5706Z" fill="#F4AC00"/>
<path d="M19.649 29.678H18.5405V30.7865H19.649V29.678Z" fill="#F4AC00"/>
<path d="M18.1135 29.5706H16.7927V30.8913H18.1135V29.5706Z" fill="#F4AC00"/>
<path d="M18.006 29.678H16.8975V30.7865H18.006V29.678Z" fill="#F4AC00"/>
<path d="M47.6841 31.2136H46.3633V32.5344H47.6841V31.2136Z" fill="#F9DF00"/>
<path d="M47.5792 31.321H46.4707V32.4295H47.5792V31.321Z" fill="#F9DF00"/>
<path d="M46.0407 31.2136H44.72V32.5344H46.0407V31.2136Z" fill="#F9DF00"/>
<path d="M45.9361 31.321H44.8276V32.4295H45.9361V31.321Z" fill="#F9DF00"/>
<path d="M44.3977 31.2136H43.0769V32.5344H44.3977V31.2136Z" fill="#F9DF00"/>
<path d="M44.2928 31.321H43.1843V32.4295H44.2928V31.321Z" fill="#F9DF00"/>
<path d="M42.7573 31.2136H41.4365V32.5344H42.7573V31.2136Z" fill="#F9DF00"/>
<path d="M42.6498 31.321H41.5413V32.4295H42.6498V31.321Z" fill="#F9DF00"/>
<path d="M41.1142 31.2136H39.7935V32.5344H41.1142V31.2136Z" fill="#F9DF00"/>
<path d="M41.0069 31.321H39.8984V32.4295H41.0069V31.321Z" fill="#F9DF00"/>
<path d="M31.2556 31.2136H29.9348V32.5344H31.2556V31.2136Z" fill="#F9DF00"/>
<path d="M31.1483 31.321H30.0398V32.4295H31.1483V31.321Z" fill="#F9DF00"/>
<path d="M29.6125 31.2136H28.2917V32.5344H29.6125V31.2136Z" fill="#F9DF00"/>
<path d="M29.5077 31.321H28.3992V32.4295H29.5077V31.321Z" fill="#F9DF00"/>
<path d="M27.9695 31.2136H26.6487V32.5344H27.9695V31.2136Z" fill="#F9DF00"/>
<path d="M27.8646 31.321H26.7561V32.4295H27.8646V31.321Z" fill="#F9DF00"/>
<path d="M26.3261 31.2136H25.0054V32.5344H26.3261V31.2136Z" fill="#F9DF00"/>
<path d="M26.2215 31.321H25.113V32.4295H26.2215V31.321Z" fill="#F9DF00"/>
<path d="M24.6858 31.2136H23.365V32.5344H24.6858V31.2136Z" fill="#F4AC00"/>
<path d="M24.5782 31.321H23.4697V32.4295H24.5782V31.321Z" fill="#F4AC00"/>
<path d="M23.0403 31.2136H21.7195V32.5344H23.0403V31.2136Z" fill="#F4AC00"/>
<path d="M22.9354 31.321H21.8269V32.4295H22.9354V31.321Z" fill="#F4AC00"/>
<path d="M21.3996 31.2136H20.0789V32.5344H21.3996V31.2136Z" fill="#F4AC00"/>
<path d="M21.2923 31.321H20.1838V32.4295H21.2923V31.321Z" fill="#F4AC00"/>
<path d="M19.7563 31.2136H18.4355V32.5344H19.7563V31.2136Z" fill="#F4AC00"/>
<path d="M19.649 31.321H18.5405V32.4295H19.649V31.321Z" fill="#F4AC00"/>
<path d="M18.1135 31.2136H16.7927V32.5344H18.1135V31.2136Z" fill="#F4AC00"/>
<path d="M18.006 31.321H16.8975V32.4295H18.006V31.321Z" fill="#F4AC00"/>
<path d="M50.9702 32.8567H49.6494V34.1775H50.9702V32.8567Z" fill="#F9DF00"/>
<path d="M50.8627 32.9644H49.7542V34.0729H50.8627V32.9644Z" fill="#F9DF00"/>
<path d="M49.3271 32.8567H48.0063V34.1775H49.3271V32.8567Z" fill="#F9DF00"/>
<path d="M49.2223 32.9644H48.1138V34.0729H49.2223V32.9644Z" fill="#F9DF00"/>
<path d="M46.0407 32.8567H44.72V34.1775H46.0407V32.8567Z" fill="#F9DF00"/>
<path d="M45.9361 32.9644H44.8276V34.0729H45.9361V32.9644Z" fill="#F9DF00"/>
<path d="M44.3977 32.8567H43.0769V34.1775H44.3977V32.8567Z" fill="#F9DF00"/>
<path d="M44.2928 32.9644H43.1843V34.0729H44.2928V32.9644Z" fill="#F9DF00"/>
<path d="M42.7573 32.8567H41.4365V34.1775H42.7573V32.8567Z" fill="#F9DF00"/>
<path d="M42.6498 32.9644H41.5413V34.0729H42.6498V32.9644Z" fill="#F9DF00"/>
<path d="M41.1142 32.8567H39.7935V34.1775H41.1142V32.8567Z" fill="#F9DF00"/>
<path d="M41.0069 32.9644H39.8984V34.0729H41.0069V32.9644Z" fill="#F9DF00"/>
<path d="M31.2556 32.8567H29.9348V34.1775H31.2556V32.8567Z" fill="#F9DF00"/>
<path d="M31.1483 32.9644H30.0398V34.0729H31.1483V32.9644Z" fill="#F9DF00"/>
<path d="M27.9695 32.8567H26.6487V34.1775H27.9695V32.8567Z" fill="#F9DF00"/>
<path d="M27.8646 32.9644H26.7561V34.0729H27.8646V32.9644Z" fill="#F9DF00"/>
<path d="M26.3261 32.8567H25.0054V34.1775H26.3261V32.8567Z" fill="#F9DF00"/>
<path d="M26.2215 32.9644H25.113V34.0729H26.2215V32.9644Z" fill="#F9DF00"/>
<path d="M24.6858 32.8567H23.365V34.1775H24.6858V32.8567Z" fill="#F4AC00"/>
<path d="M24.5782 32.9644H23.4697V34.0729H24.5782V32.9644Z" fill="#F4AC00"/>
<path d="M23.0403 32.8567H21.7195V34.1775H23.0403V32.8567Z" fill="#F4AC00"/>
<path d="M22.9354 32.9644H21.8269V34.0729H22.9354V32.9644Z" fill="#F4AC00"/>
<path d="M21.3996 32.8567H20.0789V34.1775H21.3996V32.8567Z" fill="#F4AC00"/>
<path d="M21.2923 32.9644H20.1838V34.0729H21.2923V32.9644Z" fill="#F4AC00"/>
<path d="M19.7563 32.8567H18.4355V34.1775H19.7563V32.8567Z" fill="#F4AC00"/>
<path d="M19.649 32.9644H18.5405V34.0729H19.649V32.9644Z" fill="#F4AC00"/>
<path d="M49.3271 34.5H48.0063V35.8208H49.3271V34.5Z" fill="#F9DF00"/>
<path d="M49.2223 34.6047H48.1138V35.7132H49.2223V34.6047Z" fill="#F9DF00"/>
<path d="M47.6841 34.5H46.3633V35.8208H47.6841V34.5Z" fill="#F9DF00"/>
<path d="M47.5792 34.6047H46.4707V35.7132H47.5792V34.6047Z" fill="#F9DF00"/>
<path d="M46.0407 34.5H44.72V35.8208H46.0407V34.5Z" fill="#F9DF00"/>
<path d="M45.9361 34.6047H44.8276V35.7132H45.9361V34.6047Z" fill="#F9DF00"/>
<path d="M44.3977 34.5H43.0769V35.8208H44.3977V34.5Z" fill="#F9DF00"/>
<path d="M44.2928 34.6047H43.1843V35.7132H44.2928V34.6047Z" fill="#F9DF00"/>
<path d="M42.7573 34.5H41.4365V35.8208H42.7573V34.5Z" fill="#F9DF00"/>
<path d="M42.6498 34.6047H41.5413V35.7132H42.6498V34.6047Z" fill="#F9DF00"/>
<path d="M27.9695 34.5H26.6487V35.8208H27.9695V34.5Z" fill="#F9DF00"/>
<path d="M27.8646 34.6047H26.7561V35.7132H27.8646V34.6047Z" fill="#F9DF00"/>
<path d="M26.3261 34.5H25.0054V35.8208H26.3261V34.5Z" fill="#F9DF00"/>
<path d="M26.2215 34.6047H25.113V35.7132H26.2215V34.6047Z" fill="#F9DF00"/>
<path d="M24.6858 34.5H23.365V35.8208H24.6858V34.5Z" fill="#F4AC00"/>
<path d="M24.5782 34.6047H23.4697V35.7132H24.5782V34.6047Z" fill="#F4AC00"/>
<path d="M23.0403 34.5H21.7195V35.8208H23.0403V34.5Z" fill="#F4AC00"/>
<path d="M22.9354 34.6047H21.8269V35.7132H22.9354V34.6047Z" fill="#F4AC00"/>
<path d="M21.3996 34.5H20.0789V35.8208H21.3996V34.5Z" fill="#F9DF00"/>
<path d="M21.2923 34.6047H20.1838V35.7132H21.2923V34.6047Z" fill="#F9DF00"/>
<path d="M19.7563 34.5H18.4355V35.8208H19.7563V34.5Z" fill="#F9DF00"/>
<path d="M19.649 34.6047H18.5405V35.7132H19.649V34.6047Z" fill="#F9DF00"/>
<path d="M47.6841 36.1431H46.3633V37.4638H47.6841V36.1431Z" fill="#F9DF00"/>
<path d="M47.5792 36.2478H46.4707V37.3563H47.5792V36.2478Z" fill="#F9DF00"/>
<path d="M46.0407 36.1431H44.72V37.4638H46.0407V36.1431Z" fill="#F9DF00"/>
<path d="M45.9361 36.2478H44.8276V37.3563H45.9361V36.2478Z" fill="#F9DF00"/>
<path d="M44.3977 36.1431H43.0769V37.4638H44.3977V36.1431Z" fill="#F9DF00"/>
<path d="M44.2928 36.2478H43.1843V37.3563H44.2928V36.2478Z" fill="#F9DF00"/>
<path d="M42.7573 36.1431H41.4365V37.4638H42.7573V36.1431Z" fill="#F9DF00"/>
<path d="M42.6498 36.2478H41.5413V37.3563H42.6498V36.2478Z" fill="#F9DF00"/>
<path d="M26.3261 36.1431H25.0054V37.4638H26.3261V36.1431Z" fill="#F9DF00"/>
<path d="M26.2215 36.2478H25.113V37.3563H26.2215V36.2478Z" fill="#F9DF00"/>
<path d="M24.6858 36.1431H23.365V37.4638H24.6858V36.1431Z" fill="#F4AC00"/>
<path d="M24.5782 36.2478H23.4697V37.3563H24.5782V36.2478Z" fill="#F4AC00"/>
<path d="M23.0403 36.1431H21.7195V37.4638H23.0403V36.1431Z" fill="#F4AC00"/>
<path d="M22.9354 36.2478H21.8269V37.3563H22.9354V36.2478Z" fill="#F4AC00"/>
<path d="M21.3996 36.1431H20.0789V37.4638H21.3996V36.1431Z" fill="#F9DF00"/>
<path d="M21.2923 36.2478H20.1838V37.3563H21.2923V36.2478Z" fill="#F9DF00"/>
<path d="M46.0407 37.7861H44.72V39.1069H46.0407V37.7861Z" fill="#F9DF00"/>
<path d="M45.9361 37.8909H44.8276V38.9994H45.9361V37.8909Z" fill="#F9DF00"/>
<path d="M44.3977 37.7861H43.0769V39.1069H44.3977V37.7861Z" fill="#F9DF00"/>
<path d="M44.2928 37.8909H43.1843V38.9994H44.2928V37.8909Z" fill="#F9DF00"/>
<path d="M42.7573 37.7861H41.4365V39.1069H42.7573V37.7861Z" fill="#F9DF00"/>
<path d="M42.6498 37.8909H41.5413V38.9994H42.6498V37.8909Z" fill="#F9DF00"/>
<path d="M26.3261 37.7861H25.0054V39.1069H26.3261V37.7861Z" fill="#F9DF00"/>
<path d="M26.2215 37.8909H25.113V38.9994H26.2215V37.8909Z" fill="#F9DF00"/>
<path d="M24.6858 37.7861H23.365V39.1069H24.6858V37.7861Z" fill="#F4AC00"/>
<path d="M24.5782 37.8909H23.4697V38.9994H24.5782V37.8909Z" fill="#F4AC00"/>
<path d="M23.0403 37.7861H21.7195V39.1069H23.0403V37.7861Z" fill="#F4AC00"/>
<path d="M22.9354 37.8909H21.8269V38.9994H22.9354V37.8909Z" fill="#F4AC00"/>
<path d="M42.7573 39.4292H41.4365V40.75H42.7573V39.4292Z" fill="#F9DF00"/>
<path d="M42.6498 39.5339H41.5413V40.6424H42.6498V39.5339Z" fill="#F9DF00"/>
<path d="M41.1142 39.4292H39.7935V40.75H41.1142V39.4292Z" fill="#F9DF00"/>
<path d="M41.0069 39.5339H39.8984V40.6424H41.0069V39.5339Z" fill="#F9DF00"/>
<path d="M27.9695 39.4292H26.6487V40.75H27.9695V39.4292Z" fill="#F9DF00"/>
<path d="M27.8646 39.5339H26.7561V40.6424H27.8646V39.5339Z" fill="#F9DF00"/>
<path d="M26.3261 39.4292H25.0054V40.75H26.3261V39.4292Z" fill="#F9DF00"/>
<path d="M26.2215 39.5339H25.113V40.6424H26.2215V39.5339Z" fill="#F9DF00"/>
<path d="M24.6858 39.4292H23.365V40.75H24.6858V39.4292Z" fill="#F4AC00"/>
<path d="M24.5782 39.5339H23.4697V40.6424H24.5782V39.5339Z" fill="#F4AC00"/>
<path d="M63.7193 56.2428C63.1795 56.2428 62.6946 56.1825 62.2649 56.0593C61.8377 55.9362 61.4682 55.7894 61.1642 55.6191C60.8524 55.4487 60.6113 55.2784 60.4252 55.1054C60.2418 54.9325 60.1239 54.791 60.0819 54.6914L60.1265 54.6442C60.2208 54.5132 60.3283 54.4057 60.4462 54.3219C60.551 54.2616 60.6637 54.2302 60.779 54.2302C60.855 54.2302 60.9284 54.238 60.9939 54.2616C61.062 54.2826 61.138 54.3088 61.2245 54.3402C61.3084 54.3612 61.3948 54.3874 61.4813 54.4241C61.5678 54.4634 61.6621 54.5079 61.7643 54.5551C61.9766 54.639 62.2229 54.7123 62.5112 54.7779C62.7942 54.8434 63.1401 54.8879 63.5411 54.9089H63.7167C64.1071 54.9089 64.4399 54.8643 64.7151 54.7779C64.9903 54.6914 65.2156 54.5787 65.386 54.4372C65.5511 54.3009 65.6742 54.1489 65.7502 53.9812C65.821 53.8109 65.8577 53.651 65.8577 53.499C65.8682 53.2343 65.7869 52.988 65.6113 52.7679C65.4358 52.5451 65.1973 52.3329 64.8907 52.1285C64.5815 51.9241 64.2198 51.7144 63.811 51.5021C63.397 51.2899 62.9567 51.0593 62.4929 50.8103C61.7329 50.391 61.1669 49.9219 60.7973 49.4031C60.4252 48.8842 60.2654 48.3391 60.3204 47.7704C60.3597 47.3407 60.4829 46.9659 60.6847 46.6462C60.8865 46.3291 61.138 46.0671 61.4394 45.8522C61.7408 45.6425 62.0788 45.4905 62.4509 45.391C62.8231 45.294 63.203 45.2468 63.5856 45.2468C64.2329 45.2468 64.8016 45.3307 65.2864 45.4905C65.7738 45.6556 66.1853 45.8338 66.5233 46.0304C66.9138 46.2557 67.2466 46.5152 67.5217 46.8008L67.4903 46.8454C67.3645 46.9974 67.2597 47.1022 67.1758 47.1546C67.0684 47.228 66.9505 47.262 66.8247 47.262C66.7067 47.262 66.5626 47.228 66.3975 47.1546C66.311 47.1232 66.2272 47.0891 66.1355 47.055C66.0464 47.021 65.9468 46.9816 65.8393 46.9371C65.5327 46.8297 65.2104 46.7379 64.8671 46.6724C64.5212 46.6069 64.2198 46.5755 63.9525 46.5859C63.8136 46.5859 63.6643 46.5938 63.507 46.6174C63.3498 46.6384 63.1978 46.675 63.0563 46.7274C62.9122 46.7799 62.7864 46.8506 62.6737 46.9397C62.561 47.0314 62.485 47.152 62.4405 47.2961C62.3461 47.6001 62.4142 47.87 62.6422 48.1059C62.8676 48.347 63.1742 48.5776 63.5594 48.7977C63.9473 49.0231 64.3744 49.2458 64.8461 49.4686C65.3178 49.6913 65.7581 49.9403 66.1721 50.2128C66.7434 50.6007 67.1654 50.9964 67.451 51.4026C67.7314 51.8087 67.9017 52.2097 67.9646 52.5949C68.0275 52.9828 68.0065 53.3575 67.9017 53.7139C67.7995 54.0755 67.6502 54.3926 67.4562 54.6678C67.1182 55.1788 66.6098 55.5693 65.9389 55.8392C65.2681 56.1144 64.5264 56.248 63.7114 56.248M59.5264 54.4791V54.5839C59.5264 54.9325 59.4635 55.2024 59.3377 55.3989C59.2302 55.6033 59.0625 55.7606 58.8424 55.8602C58.6406 55.9728 58.41 56.0384 58.1532 56.0515C57.8938 56.0646 57.6579 56.0777 57.4483 56.0908C56.4865 56.1301 55.6584 56.0829 54.964 55.944C54.2721 55.8077 53.7008 55.5431 53.2501 55.1552C52.7994 54.7674 52.4665 54.2354 52.2517 53.5645C52.0315 52.8937 51.9241 52.0472 51.9241 51.0331V48.1321C51.9241 47.435 52.0368 46.8873 52.2569 46.4864C52.3748 46.282 52.5137 46.1195 52.6709 45.9937C52.8282 45.8731 53.0116 45.7709 53.2239 45.6897C53.3628 45.6373 53.5069 45.5954 53.6563 45.5561C53.8057 45.522 53.9629 45.4958 54.128 45.4722C54.3534 45.4512 54.5866 45.4381 54.8303 45.425C55.074 45.4172 55.3256 45.4119 55.5903 45.4119H56.9844C57.6631 45.4119 58.1506 45.4041 58.4467 45.3805C58.7428 45.3595 58.9315 45.3464 59.018 45.3359H59.1438V45.4276C59.1438 45.7762 59.0809 46.0461 58.9551 46.2426C58.8398 46.4392 58.6773 46.5964 58.465 46.717C58.2528 46.8166 58.0274 46.8794 57.7889 46.9004C57.5505 46.9214 57.3067 46.9319 57.0657 46.9319H54.3665C54.3036 46.945 54.2485 46.9528 54.2092 46.9633C54.1673 46.9764 54.128 46.9895 54.0965 47.0105C54.0336 47.0419 53.9891 47.0838 53.9576 47.1336C53.9183 47.1861 53.8895 47.2568 53.8817 47.3433C53.8685 47.4298 53.8633 47.532 53.8633 47.6447L53.9079 49.5184H57.8125C57.8125 49.9796 57.6815 50.3491 57.4168 50.6242C57.1521 50.8994 56.7774 51.0383 56.2873 51.0383H53.8948C53.8712 51.7275 53.921 52.2988 54.0389 52.7548C54.1516 53.2134 54.3403 53.5698 54.6023 53.8344C54.8591 54.0991 55.1998 54.2904 55.6191 54.4057C56.0384 54.5184 56.5363 54.5761 57.1181 54.5761C57.8073 54.5761 58.3366 54.5682 58.7114 54.5446C59.0835 54.5237 59.3193 54.5106 59.4032 54.4975H59.4347L59.529 54.4844L59.5264 54.4791ZM50.5168 54.6023C50.5168 54.9115 50.5221 55.1605 50.5273 55.3544C50.5326 55.5509 50.5352 55.7029 50.5509 55.813C50.5588 55.9388 50.5692 56.0305 50.5823 56.0908C49.9351 56.0908 49.4345 55.9597 49.0886 55.6977C48.7427 55.4356 48.5671 54.9954 48.5671 54.3822L48.6615 47.207C48.3653 48.0404 48.0771 48.8108 47.8019 49.5288C47.684 49.8328 47.5687 50.1473 47.4455 50.4696C47.325 50.7972 47.207 51.1012 47.0944 51.3842C46.9817 51.6725 46.8821 51.9372 46.7878 52.1782C46.6934 52.4167 46.6069 52.6185 46.5309 52.7705C46.3737 53.1059 46.1719 53.3418 45.9282 53.4676C45.6845 53.5986 45.4513 53.672 45.2311 53.6929C44.9665 53.7139 44.6965 53.6746 44.4214 53.5829L41.979 47.2044L42.0419 54.597C42.0419 54.9063 42.0471 55.1552 42.0498 55.3491C42.055 55.5457 42.0576 55.6977 42.0707 55.8077C42.0812 55.9335 42.0891 56.0253 42.1022 56.0855C41.4444 56.0855 40.9465 55.9545 40.6032 55.6924C40.2573 55.4304 40.0869 54.9901 40.0869 54.3769V45.5246L40.1498 45.4932C40.2127 45.4853 40.2835 45.4722 40.37 45.4512C40.446 45.4381 40.5272 45.4303 40.6163 45.4172C40.7054 45.4093 40.8102 45.4041 40.9281 45.4041C41.2662 45.4041 41.5859 45.4434 41.882 45.5272C42.1755 45.6085 42.4533 45.75 42.7154 45.936C42.9722 46.1221 43.2159 46.3789 43.436 46.7039C43.6562 47.0262 43.8632 47.4271 44.0571 47.9093C44.0676 47.9486 44.0938 48.0325 44.1436 48.153C44.1934 48.2788 44.2484 48.4282 44.3113 48.6012C44.3742 48.7767 44.4423 48.9628 44.5183 49.1672C44.5943 49.3716 44.6677 49.5839 44.7385 49.7988C44.9193 50.2914 45.1158 50.8391 45.3281 51.4445L46.5833 47.9067C46.772 47.4219 46.9791 47.021 47.1992 46.7012C47.4193 46.3789 47.663 46.1221 47.9225 45.9334C48.1793 45.7474 48.4571 45.6058 48.7558 45.5246C49.0519 45.4407 49.3716 45.4014 49.7097 45.4014C49.8224 45.4014 49.9272 45.4067 50.0163 45.4145C50.1054 45.4276 50.1866 45.4355 50.2626 45.4486C50.3491 45.4696 50.4199 45.4827 50.4828 45.4905L50.5509 45.522L50.5195 54.5918L50.5168 54.6023ZM33.4202 46.7641C33.1005 46.7956 32.8411 46.848 32.6366 46.9214C32.4296 47 32.2671 47.0917 32.1466 47.1992C32.0261 47.3092 31.9343 47.4245 31.8819 47.5608C31.8269 47.6971 31.8007 47.8255 31.8007 47.9617V48.4885C31.8007 48.7112 31.8059 48.934 31.8085 49.1593C31.8138 49.3873 31.819 49.5944 31.819 49.783V50.1578C32.0627 50.2102 32.3091 50.2574 32.5659 50.2967C32.7782 50.3281 33.0061 50.3569 33.263 50.3779C33.5145 50.4041 33.7635 50.4172 34.0098 50.4172C34.6755 50.4172 35.1969 50.2914 35.5796 50.0346C35.9622 49.7778 36.1875 49.3585 36.2635 48.7767C36.3055 48.3968 36.2452 48.0718 36.0879 47.7966C35.9307 47.5267 35.7106 47.3118 35.4354 47.152C35.1603 46.9947 34.8432 46.8821 34.4868 46.8165C34.1278 46.751 33.7714 46.7327 33.4202 46.7641ZM31.819 54.6023C31.819 54.9194 31.8243 55.1736 31.8269 55.3596C31.8321 55.5509 31.8348 55.7029 31.8505 55.813C31.8583 55.9388 31.8688 56.0305 31.8819 56.0908C31.2242 56.0908 30.7262 55.9597 30.3882 55.6977C30.0501 55.4356 29.8798 54.9954 29.8798 54.3822V47.8831C29.8798 47.3905 29.9689 46.9816 30.1497 46.6541C30.3305 46.3265 30.5769 46.0618 30.8887 45.8627C31.2006 45.6635 31.5727 45.5194 32.0103 45.4303C32.448 45.3438 32.9144 45.2861 33.4228 45.2573C33.7504 45.2363 34.0989 45.2494 34.471 45.2966C34.8405 45.3438 35.2101 45.4224 35.5743 45.5403C35.9386 45.6583 36.2897 45.8102 36.6173 45.9937C36.9449 46.1797 37.2331 46.4077 37.4821 46.6777C37.7284 46.9528 37.9223 47.262 38.0665 47.6106C38.2106 47.9591 38.2735 48.347 38.2499 48.7767C38.2263 49.3821 38.0245 49.9193 37.6524 50.3884C37.2777 50.8601 36.7352 51.1982 36.0277 51.4026C36.2714 51.4838 36.4784 51.6148 36.6488 51.7956C36.8165 51.9738 36.9685 52.1914 37.0995 52.4403C37.2305 52.6919 37.3642 52.967 37.4952 53.2632C37.6262 53.5593 37.7756 53.8607 37.9328 54.1699C38.0508 54.4057 38.1765 54.618 38.3154 54.8067C38.4543 54.998 38.5801 55.1631 38.6928 55.3072C38.8238 55.4723 38.9549 55.6164 39.0937 55.7396C38.9994 55.8313 38.892 55.9099 38.774 55.9702C38.6561 56.0174 38.5172 56.0619 38.36 56.0934C38.2028 56.1248 38.0088 56.1248 37.7887 56.0934C37.5371 56.0619 37.3039 55.9886 37.0916 55.8759C36.8794 55.7658 36.6697 55.5929 36.4574 55.357C36.2452 55.1212 36.0224 54.8067 35.784 54.4162C35.5455 54.0284 35.2756 53.5409 34.9663 52.9566C34.7855 52.629 34.5706 52.3827 34.3191 52.2123C34.0622 52.042 33.753 51.9083 33.3835 51.8061C33.3154 51.7852 33.2577 51.7721 33.2001 51.759C33.1424 51.7511 33.0874 51.738 33.0324 51.7144C32.9564 51.7013 32.8515 51.683 32.7231 51.6568C32.5921 51.6305 32.4584 51.6096 32.3169 51.586C32.1597 51.5546 31.992 51.5257 31.8269 51.4943V54.5997L31.819 54.6023ZM25.2335 51.4026C25.0213 50.8915 24.8142 50.391 24.6124 49.9036C24.4107 49.4162 24.2377 48.9759 24.091 48.5881C23.9023 48.1399 23.7319 47.7075 23.5826 47.2987C23.4175 47.7075 23.2419 48.1399 23.0611 48.5881C22.9038 48.9759 22.7283 49.4162 22.5396 49.9036C22.3456 50.391 22.1439 50.8915 21.9316 51.4026H25.2335ZM28.6612 55.2286C28.7005 55.3334 28.7451 55.4278 28.787 55.5195C28.8263 55.6112 28.8683 55.6977 28.8997 55.7815C28.9416 55.8733 28.9809 55.9676 29.0124 56.0593C28.6927 56.1432 28.3913 56.1668 28.1083 56.1379C27.862 56.117 27.6182 56.0462 27.3693 55.9204C27.123 55.7973 26.929 55.5719 26.7901 55.2443C26.7272 55.1002 26.6093 54.8224 26.4442 54.3979C26.2739 53.976 26.0695 53.4833 25.8363 52.9199H21.3289C21.0983 53.4807 20.8965 53.9733 20.7314 54.3979C20.561 54.8198 20.4431 55.1002 20.3802 55.2443C20.2308 55.5719 20.0343 55.7973 19.7906 55.9204C19.5469 56.0462 19.3058 56.117 19.0621 56.1379C18.7738 56.1694 18.4724 56.1432 18.158 56.0593C18.1894 55.9676 18.2261 55.8733 18.2654 55.7815C18.2969 55.6977 18.3335 55.6112 18.3729 55.5195C18.4095 55.4278 18.4541 55.3334 18.5039 55.2286C18.5799 55.0452 18.7109 54.7281 18.8943 54.2747C19.0778 53.8266 19.2901 53.3077 19.5364 52.7233C19.7801 52.1389 20.0369 51.5257 20.3068 50.8811C20.5768 50.2364 20.8283 49.6232 21.0668 49.0388C21.3053 48.4544 21.5175 47.9408 21.7115 47.4927C21.9001 47.0498 22.0312 46.7353 22.1072 46.5466C22.2251 46.2584 22.3509 46.033 22.4819 45.8627C22.6129 45.6923 22.7414 45.5613 22.8724 45.4696C22.9982 45.3779 23.124 45.3202 23.2445 45.294C23.365 45.2678 23.4777 45.2547 23.5826 45.2547C23.6874 45.2547 23.8027 45.2678 23.9259 45.294C24.0464 45.3202 24.1722 45.3779 24.3006 45.4696C24.429 45.5613 24.5574 45.6923 24.6884 45.8627C24.8195 46.033 24.9453 46.2584 25.0606 46.5466C25.1366 46.7327 25.2676 47.0472 25.451 47.4927C25.6371 47.9408 25.8467 48.4544 26.0957 49.0388C26.3394 49.6232 26.5962 50.2364 26.8661 50.8811C27.1361 51.5257 27.3929 52.1389 27.6366 52.7233C27.8803 53.3077 28.0952 53.8266 28.2812 54.2747C28.4647 54.7281 28.5905 55.0452 28.6691 55.2286H28.6612ZM11.7114 46.8061C11.6982 46.4968 11.693 46.2479 11.693 46.0618C11.693 45.8758 11.6878 45.7211 11.6799 45.6085C11.6668 45.4853 11.6589 45.3936 11.6485 45.3333C12.9404 45.3333 13.5824 45.9308 13.5824 47.1284L13.6139 51.0304C13.6139 51.6961 13.6453 52.2595 13.703 52.7076C13.7606 53.1557 13.8838 53.5226 14.0672 53.7951C14.2507 54.0729 14.5127 54.2695 14.8587 54.3874C15.2046 54.5053 15.6606 54.5656 16.2318 54.5656C16.4965 54.5656 16.735 54.5604 16.9577 54.5577C17.1726 54.5525 17.3587 54.5446 17.5054 54.5368C17.681 54.5237 17.8383 54.5106 17.9771 54.4896V54.5813C17.9771 54.7464 17.9378 54.9167 17.8592 55.0949C17.778 55.2731 17.6574 55.4356 17.495 55.5771C17.3272 55.7213 17.1202 55.8418 16.8739 55.9388C16.6276 56.0384 16.3262 56.0855 15.9776 56.0855C15.1312 56.0855 14.4341 56.0017 13.8864 55.8339C13.3335 55.6636 12.8959 55.3806 12.5761 54.9796C12.2538 54.5787 12.0284 54.0467 11.9027 53.3863C11.7716 52.7286 11.7087 51.9083 11.7087 50.9387V46.8034L11.7114 46.8061ZM7.07555 51.4026C6.86329 50.8915 6.65626 50.391 6.45448 49.9036C6.25269 49.4162 6.07973 48.9759 5.93298 48.5881C5.7443 48.1399 5.57396 47.7075 5.42459 47.2987C5.25687 47.7075 5.08392 48.1399 4.9031 48.5881C4.74586 48.9759 4.57028 49.4162 4.3816 49.9036C4.18768 50.391 3.9859 50.8915 3.77363 51.4026H7.07555ZM10.5059 55.2286C10.5452 55.3334 10.5924 55.4278 10.6317 55.5195C10.671 55.6112 10.7129 55.6977 10.7444 55.7815C10.7863 55.8733 10.8256 55.9676 10.857 56.0593C10.5373 56.1432 10.236 56.1668 9.95295 56.1379C9.70661 56.117 9.4629 56.0462 9.21656 55.9204C8.96761 55.7973 8.77631 55.5719 8.6348 55.2443C8.5719 55.1002 8.45398 54.8224 8.28888 54.3979C8.11854 53.976 7.91676 53.4833 7.68091 52.9199H3.1709C2.94291 53.4807 2.7385 53.9733 2.57341 54.3979C2.40307 54.8198 2.28514 55.1002 2.22225 55.2443C2.07288 55.5719 1.87633 55.7973 1.63262 55.9204C1.3889 56.0462 1.14781 56.117 0.904099 56.1379C0.615835 56.1694 0.314469 56.1432 0 56.0593C0.0314469 55.9676 0.068135 55.8733 0.107444 55.7815C0.13889 55.6977 0.175579 55.6112 0.214887 55.5195C0.251575 55.4278 0.296125 55.3334 0.345916 55.2286C0.421913 55.0452 0.552941 54.7281 0.736382 54.2747C0.922443 53.8266 1.13209 53.3077 1.38104 52.7233C1.62476 52.1389 1.88157 51.5257 2.15149 50.8811C2.42141 50.2364 2.67299 49.6232 2.91146 49.0388C3.14993 48.4544 3.3622 47.9408 3.55612 47.4927C3.7448 47.0498 3.87583 46.7353 3.95183 46.5466C4.06975 46.2584 4.19554 46.033 4.32657 45.8627C4.4576 45.6923 4.58863 45.5613 4.71704 45.4696C4.84282 45.3779 4.96861 45.3202 5.09178 45.294C5.21232 45.2678 5.32501 45.2547 5.42983 45.2547C5.53466 45.2547 5.64996 45.2678 5.77313 45.294C5.89367 45.3202 6.01946 45.3779 6.14525 45.4696C6.27104 45.5613 6.40207 45.6923 6.53309 45.8627C6.66412 46.033 6.78991 46.2584 6.90522 46.5466C6.98121 46.7327 7.11224 47.0472 7.29568 47.4927C7.47912 47.9408 7.69139 48.4544 7.94034 49.0388C8.18406 49.6232 8.43825 50.2364 8.71079 50.8811C8.98071 51.5257 9.23753 52.1389 9.47862 52.7233C9.72233 53.3077 9.93722 53.8266 10.1233 54.2747C10.3067 54.7281 10.4325 55.0452 10.5111 55.2286H10.5059Z" fill="white"/>
<path d="M52.967 16.2555C52.1441 15.9646 51.3055 15.7288 50.4643 15.527C48.7583 15.1077 47.0288 14.8823 45.2966 14.7408C43.567 14.6046 41.8321 14.56 40.1026 14.6046C36.646 14.7277 33.2105 15.1339 29.8325 15.8336C28.1449 16.1874 26.4703 16.6093 24.8141 17.0993C23.1579 17.592 21.5174 18.145 19.9189 18.808C16.727 20.1392 13.5928 21.7351 10.8779 24.0255C10.2018 24.5994 9.55976 25.2257 8.96751 25.9097C8.37526 26.5937 7.84066 27.351 7.44233 28.2053C7.04139 29.0544 6.78195 30.0188 6.81077 31.0094C6.83436 31.9947 7.15407 32.9774 7.70439 33.761C8.25209 34.5471 8.95703 35.1604 9.70389 35.6583C10.4534 36.1562 11.2553 36.5283 12.0703 36.8349C13.7003 37.4612 15.3984 37.7783 17.0887 37.9906L17.1437 37.6787C16.3261 37.4691 15.5111 37.2542 14.7223 36.9738C13.9283 36.7065 13.1499 36.4077 12.4136 36.0382C11.6772 35.6714 10.9618 35.2652 10.3381 34.7725C9.71175 34.2798 9.16667 33.7086 8.79455 33.0665C8.42243 32.4245 8.24161 31.7195 8.27306 31.0094C8.29926 30.3018 8.52987 29.5969 8.89151 28.9365C9.63313 27.6183 10.7967 26.4758 12.065 25.4878C13.3491 24.5025 14.7564 23.6586 16.2134 22.8934C17.6731 22.1335 19.1904 21.4678 20.7365 20.8782C23.8367 19.7094 27.0416 18.787 30.3069 18.1371C33.5669 17.4767 36.874 17.0207 40.1917 16.8792C43.5041 16.7036 46.8375 16.8373 50.0581 17.4243C50.8312 17.5684 51.5964 17.7466 52.3433 17.9694C52.3931 17.3352 52.6184 16.7482 52.967 16.2581" fill="white"/>
<path d="M59.2275 21.3524C59.0781 20.9121 58.8685 20.4981 58.6169 20.1155C58.3496 20.5243 57.9958 20.8702 57.5844 21.1323C57.7311 21.3498 57.8648 21.5778 57.967 21.8215C58.1164 22.149 58.2002 22.5028 58.25 22.8618C58.2814 23.2235 58.2814 23.5956 58.2159 23.9677C58.1085 24.7172 57.7704 25.4483 57.3695 26.1428C56.9581 26.8373 56.4444 27.4898 55.881 28.0978C55.3228 28.7136 54.7096 29.2901 54.0649 29.8352L54.251 30.0894C55.6792 29.1565 57.0498 28.0715 58.1137 26.6407C58.6405 25.9279 59.0912 25.1182 59.3166 24.201C59.4371 23.7476 59.4843 23.2654 59.4817 22.7832C59.4607 22.301 59.3873 21.811 59.2249 21.3524" fill="white"/>
<path d="M58.1741 18.2417C58.1741 19.5782 57.0892 20.6631 55.7527 20.6631C54.4162 20.6631 53.3313 19.5782 53.3313 18.2417C53.3313 16.9052 54.4162 15.8203 55.7527 15.8203C57.0892 15.8203 58.1741 16.9052 58.1741 18.2417Z" fill="white"/>
</svg>
